<svg width="68" height="62" viewBox="0 0 68 62" fill="none" xmlns="http://www.w3.org/2000/svg">
<path d="M60.8029 11.8433C60.8029 25.3017 67.7743 34.5437 67.7743 41.0287C67.7743 47.5137 64.0463 61.1336 34.213 61.1336C4.37975 61.1336 0 42.811 0 35.6781C0 2.27638 60.8029 -11.9914 60.8029 11.8433Z" fill="#F6F6F6"/>
<path d="M51.8862 50.0239H15.8909C12.9393 50.0239 10.5403 47.6248 10.5403 44.6732V22.2977C10.5403 19.3461 12.9393 16.9471 15.8909 16.9471H51.8862C54.8379 16.9471 57.2369 19.3461 57.2369 22.2977V44.6732C57.2369 47.6248 54.8379 50.0239 51.8862 50.0239ZM15.8909 19.8656C14.5504 19.8656 13.4588 20.9572 13.4588 22.2977V44.6732C13.4588 46.0138 14.5504 47.1053 15.8909 47.1053H51.8862C53.2268 47.1053 54.3184 46.0138 54.3184 44.6732V22.2977C54.3184 20.9572 53.2268 19.8656 51.8862 19.8656H15.8909Z" fill="#141315"/>
<path d="M41.6709 18.4062H38.7523V14.5148C38.7523 14.2463 38.5344 14.0284 38.2659 14.0284H29.5103C29.2418 14.0284 29.0239 14.2463 29.0239 14.5148V18.4062H26.1053V14.5148C26.1053 12.6372 27.6327 11.1099 29.5103 11.1099H38.2659C40.1435 11.1099 41.6709 12.6372 41.6709 14.5148V18.4062Z" fill="#141315"/>
<path d="M38.2661 28.6211H55.7773V31.5396H38.2661V28.6211Z" fill="#141315"/>
<path d="M36.3207 36.4039H31.4565C29.5789 36.4039 28.0515 34.8766 28.0515 32.999V28.1348C28.0515 26.2572 29.5789 24.7298 31.4565 24.7298H36.3207C38.1983 24.7298 39.7257 26.2572 39.7257 28.1348V32.999C39.7257 34.8766 38.1983 36.4039 36.3207 36.4039ZM31.4565 27.6483C31.188 27.6483 30.9701 27.8663 30.9701 28.1348V32.999C30.9701 33.2675 31.188 33.4854 31.4565 33.4854H36.3207C36.5892 33.4854 36.8071 33.2675 36.8071 32.999V28.1348C36.8071 27.8663 36.5892 27.6483 36.3207 27.6483H31.4565Z" fill="#2A7BBD"/>
</svg>
