<svg width="61" height="68" viewBox="0 0 61 68" fill="none" xmlns="http://www.w3.org/2000/svg">
<path d="M48.8011 6.42631C35.3466 6.67731 25.9742 -0.12094 19.4912 0.00163813C13.0081 0.124217 -0.541669 4.1051 0.0167447 33.9345C0.575158 63.7639 18.9756 67.7973 26.1085 67.665C59.5024 67.0404 72.6319 5.98075 48.8011 6.42631V6.42631Z" fill="#F6F6F6"/>
<path d="M15.5419 5.78949L18.2935 3.03787L19.6693 4.41368L16.9177 7.1653L15.5419 5.78949Z" fill="#2A7BBD"/>
<path d="M7.63312 13.6995L10.3847 10.9478L11.7606 12.3237L9.00893 15.0753L7.63312 13.6995Z" fill="#2A7BBD"/>
<path d="M7.63654 4.07239L9.01235 2.69658L11.764 5.4482L10.3882 6.82401L7.63654 4.07239Z" fill="#2A7BBD"/>
<path d="M52.3672 15.3494C50.7581 15.3494 49.4487 14.04 49.4487 12.4309C49.4487 10.8218 50.7581 9.51233 52.3672 9.51233C53.9763 9.51233 55.2857 10.8218 55.2857 12.4309C55.2857 14.04 53.9763 15.3494 52.3672 15.3494ZM52.3672 11.458C51.8302 11.458 51.3944 11.8958 51.3944 12.4309C51.3944 12.9659 51.8302 13.4037 52.3672 13.4037C52.9042 13.4037 53.3401 12.9659 53.3401 12.4309C53.3401 11.8958 52.9042 11.458 52.3672 11.458Z" fill="#2A7BBD"/>
<path d="M32.2241 14.0633L36.0551 12.3219C38.2771 11.3121 40.8902 12.3939 41.7482 14.6801L43.227 18.6201C43.655 19.7603 44.5539 20.6592 45.6941 21.0872L49.6341 22.566C51.9203 23.424 53.0021 26.0371 51.9923 28.259L50.2509 32.0901C49.747 33.1992 49.747 34.4697 50.2509 35.5787L51.9923 39.4098C53.0021 41.6318 51.9203 44.2449 49.6341 45.1029L45.6941 46.5816C44.5539 47.0097 43.655 47.9086 43.227 49.0488L41.7482 52.9888C40.8902 55.275 38.2771 56.3568 36.0551 55.347L32.2241 53.6056C31.115 53.1016 29.8445 53.1016 28.7354 53.6056L24.9044 55.347C22.6824 56.3568 20.0693 55.275 19.2113 52.9888L17.7326 49.0488C17.3045 47.9086 16.4056 47.0097 15.2654 46.5816L11.3254 45.1029C9.0392 44.2449 7.9574 41.6318 8.96721 39.4098L10.7086 35.5787C11.2125 34.4697 11.2125 33.1992 10.7086 32.0901L8.96721 28.259C7.9574 26.0371 9.0392 23.424 11.3254 22.566L15.2654 21.0872C16.4056 20.6592 17.3045 19.7603 17.7326 18.6201L19.2113 14.6801C20.0693 12.3939 22.6824 11.3121 24.9044 12.3219L28.7354 14.0633C29.8425 14.5672 31.115 14.5672 32.2241 14.0633V14.0633Z" fill="#F6F6F6"/>
<path d="M20.4327 42.1027L18.3177 29.7806L25.1918 33.1291L30.4783 23.6186L35.7647 33.1291L42.6388 29.7806L40.5239 42.1027H20.4327Z" fill="#F6F6F6"/>
<path d="M18.3177 29.7805L20.4327 42.1026H24.324L22.5632 31.8488L18.3177 29.7805Z" fill="#F6F6F6"/>
<path d="M32.6242 14.0633C33.7333 14.5672 35.0038 14.5672 36.1129 14.0633L39.7124 12.427C38.6092 11.8627 37.2764 11.7654 36.0525 12.3219L32.4238 13.9718L32.6242 14.0633Z" fill="#F6F6F6"/>
<path d="M23.1027 52.9849L21.6239 49.0449C21.1959 47.9047 20.297 47.0058 19.1568 46.5777L15.2168 45.099C12.9306 44.2409 11.8488 41.6279 12.8586 39.4059L14.598 35.5748C15.102 34.4658 15.102 33.1952 14.598 32.0862L12.8586 28.2551C11.8488 26.0332 12.9306 23.4201 15.2168 22.562L19.1568 21.0833C20.297 20.6553 21.1959 19.7564 21.6239 18.6162L23.1027 14.6762C23.4879 13.6488 24.237 12.8842 25.1359 12.423L24.9044 12.318C22.6824 11.3082 20.0693 12.39 19.2113 14.6762L17.7326 18.6162C17.3045 19.7564 16.4056 20.6553 15.2654 21.0833L11.3254 22.562C9.0392 23.4201 7.9574 26.0332 8.96721 28.2551L10.7067 32.0862C11.2106 33.1952 11.2106 34.4658 10.7067 35.5748L8.96721 39.4059C7.9574 41.6279 9.0392 44.2409 11.3254 45.099L15.2654 46.5777C16.4056 47.0058 17.3045 47.9047 17.7326 49.0449L19.2113 52.9849C20.0693 55.2711 22.6824 56.3529 24.9044 55.3431L25.1359 55.238C24.237 54.7769 23.4879 54.0122 23.1027 52.9849Z" fill="#F6F6F6"/>
<path d="M36.1148 53.6037C35.0058 53.0998 33.7352 53.0998 32.6262 53.6037L32.4238 53.6952L36.0525 55.3432C37.2764 55.8996 38.6111 55.8024 39.7124 55.2381L36.1148 53.6037Z" fill="#F6F6F6"/>
<path d="M23.1588 57.1778C22.4195 57.1778 21.6821 57.0358 20.9875 56.7478C19.5399 56.1466 18.3938 54.9636 17.8452 53.4966L16.3664 49.5585C16.0863 48.8133 15.4987 48.2237 14.7535 47.9455L10.8134 46.4668C9.34833 45.9181 8.1634 44.7721 7.56413 43.3264C6.96486 41.8788 6.9921 40.2308 7.64196 38.8046L9.38335 34.9736C9.71217 34.2498 9.71217 33.417 9.38335 32.6932L7.64196 28.8622C6.99404 27.436 6.96486 25.788 7.56413 24.3404C8.1634 22.8947 9.34833 21.7487 10.8154 21.2L14.7535 19.7213C15.5006 19.4411 16.0882 18.8535 16.3684 18.1083L17.8471 14.1702C18.3977 12.7032 19.5418 11.5202 20.9894 10.919C22.4351 10.3178 24.0831 10.3489 25.5092 10.9968L29.3384 12.7363C30.0622 13.0651 30.893 13.067 31.6187 12.7363H31.6207L35.4517 10.9968C36.8779 10.3489 38.5259 10.3197 39.9716 10.919C41.4192 11.5202 42.5652 12.7032 43.1139 14.1702L44.5926 18.1083C44.8728 18.8535 45.4604 19.4431 46.2056 19.7213L50.1456 21.2C51.6107 21.7487 52.7956 22.8947 53.3949 24.3404C53.9942 25.788 53.9669 27.436 53.3171 28.8622L51.5757 32.6932C51.2469 33.417 51.2469 34.2498 51.5757 34.9736L53.3171 38.8046C53.965 40.2308 53.9942 41.8788 53.3949 43.3264C52.7956 44.7721 51.6107 45.9181 50.1437 46.4668L46.2056 47.9455C45.4584 48.2257 44.8708 48.8133 44.5906 49.5585L43.1119 53.4966C42.5613 54.9636 41.4172 56.1466 39.9696 56.7478C38.524 57.3471 36.876 57.3198 35.4498 56.67L31.6207 54.9286C30.8949 54.6017 30.0641 54.6017 29.3384 54.9286L25.5073 56.67C24.764 57.0085 23.9605 57.1778 23.1588 57.1778V57.1778ZM23.1588 13.4036C22.8028 13.4036 22.4448 13.4737 22.1043 13.6138C21.3902 13.9095 20.8493 14.4699 20.5769 15.1937L19.0982 19.1318C18.5242 20.665 17.312 21.8752 15.7769 22.4511L11.8388 23.9298C11.115 24.2022 10.5547 24.7431 10.2589 25.4553C9.96317 26.1674 9.97679 26.9495 10.2959 27.6519L12.0373 31.483C12.7163 32.9773 12.7163 34.6856 12.0373 36.1799L10.2959 40.011C9.97679 40.7134 9.96317 41.4955 10.2589 42.2077C10.5547 42.9198 11.115 43.4626 11.8388 43.7331L15.7788 45.2118C17.314 45.7877 18.5242 46.9979 19.1001 48.5312L20.5789 52.4692C20.8513 53.193 21.3922 53.7534 22.1062 54.0491C22.8203 54.341 23.5986 54.3293 24.301 54.0102L28.132 52.2688C29.6244 51.5878 31.3346 51.5878 32.827 52.2688L36.6581 54.0102C37.3624 54.3274 38.1407 54.341 38.8547 54.0491C39.5688 53.7534 40.1097 53.193 40.3821 52.4692L41.8608 48.5312C42.4348 46.9979 43.647 45.7877 45.1821 45.2118L49.1202 43.7331C49.844 43.4607 50.4044 42.9198 50.7001 42.2077C50.9959 41.4955 50.9822 40.7134 50.6632 40.011L48.9218 36.1799C48.2427 34.6856 48.2427 32.9773 48.9218 31.483L50.6632 27.6519C50.9822 26.9495 50.9959 26.1674 50.7001 25.4553C50.4044 24.7431 49.844 24.2003 49.1202 23.9298L45.1802 22.4511C43.645 21.8752 42.4348 20.665 41.8589 19.1318L40.3802 15.1937C40.1078 14.4699 39.5669 13.9095 38.8528 13.6138C38.1387 13.32 37.3585 13.3336 36.6581 13.6527L32.827 15.3921C31.3346 16.0751 29.6244 16.0751 28.1301 15.3921L24.301 13.6527C23.9352 13.4873 23.548 13.4036 23.1588 13.4036V13.4036Z" fill="#141315"/>
<path d="M40.5241 43.5618H20.4328C19.7227 43.5618 19.1156 43.0501 18.995 42.3496L16.88 30.0276C16.7886 29.4886 17.0045 28.9419 17.4423 28.6131C17.8801 28.2823 18.4638 28.2298 18.958 28.4691L24.5888 31.2106L29.204 22.9083C29.7177 21.9802 31.2392 21.9802 31.7548 22.9083L33.7005 26.4086L31.1478 27.827L30.4784 26.6226L26.4664 33.8372C26.0909 34.5163 25.2504 34.7828 24.5519 34.4404L20.2383 32.3391L21.6625 40.6452H39.2944L40.7186 32.3391L36.405 34.4404C35.7046 34.7848 34.866 34.5163 34.4905 33.8372L32.4397 30.1482L34.9925 28.7298L36.37 31.2086L42.0008 28.4671C42.4931 28.2278 43.0787 28.2803 43.5165 28.6111C43.9543 28.9399 44.1703 29.4847 44.0788 30.0256L41.9639 42.3477C41.8413 43.0501 41.2342 43.5618 40.5241 43.5618V43.5618Z" fill="#2A7BBD"/>
</svg>
