<svg width="68" height="62" viewBox="0 0 68 62" fill="none" xmlns="http://www.w3.org/2000/svg">
<path d="M60.8029 49.2902C60.8029 35.8319 67.7743 26.5898 67.7743 20.1048C67.7743 13.6198 64.0463 0 34.213 0C4.37975 0 0 18.3226 0 25.4555C0 58.8572 60.8029 73.1249 60.8029 49.2902Z" fill="#F6F6F6"/>
<path d="M18.265 5.89722L21.0166 3.14559L22.3924 4.52141L19.6408 7.27303L18.265 5.89722Z" fill="#2A7BBD"/>
<path d="M10.3542 13.8068L13.1058 11.0552L14.4816 12.431L11.73 15.1826L10.3542 13.8068Z" fill="#2A7BBD"/>
<path d="M10.6996 4.52057L12.0755 3.14476L14.8271 5.89638L13.4513 7.27219L10.6996 4.52057Z" fill="#2A7BBD"/>
<path d="M49.4538 36.8905C50.7971 36.8905 51.886 35.8016 51.886 34.4584C51.886 33.1151 50.7971 32.0262 49.4538 32.0262C48.1106 32.0262 47.0217 33.1151 47.0217 34.4584C47.0217 35.8016 48.1106 36.8905 49.4538 36.8905Z" fill="#F6F6F6"/>
<path d="M18.3229 36.8905C19.6661 36.8905 20.755 35.8016 20.755 34.4584C20.755 33.1151 19.6661 32.0262 18.3229 32.0262C16.9796 32.0262 15.8907 33.1151 15.8907 34.4584C15.8907 35.8016 16.9796 36.8905 18.3229 36.8905Z" fill="#F6F6F6"/>
<path d="M33.8883 37.8632C36.3061 37.8632 38.2661 35.9032 38.2661 33.4854C38.2661 31.0676 36.3061 29.1076 33.8883 29.1076C31.4705 29.1076 29.5105 31.0676 29.5105 33.4854C29.5105 35.9032 31.4705 37.8632 33.8883 37.8632Z" fill="#F6F6F6"/>
<path d="M43.1304 51.9694V47.5916C43.1304 45.4416 41.389 43.7003 39.239 43.7003H28.5377C26.3878 43.7003 24.6464 45.4416 24.6464 47.5916V51.9694H43.1304Z" fill="#F6F6F6"/>
<path d="M55.7773 48.0782V45.6461C55.7773 43.4961 54.0359 41.7547 51.8859 41.7547H47.0217C44.8717 41.7547 43.1303 43.4961 43.1303 45.6461V48.0782H55.7773Z" fill="#F6F6F6"/>
<path d="M24.6463 48.0782V45.6461C24.6463 43.4961 22.9049 41.7547 20.7549 41.7547H15.8907C13.7407 41.7547 11.9993 43.4961 11.9993 45.6461V48.0782H24.6463Z" fill="#F6F6F6"/>
<path d="M27.1426 23.2705L25.6191 15.1628L30.0806 17.1435L33.8883 10.6235L37.696 17.1435L42.1575 15.1628L40.634 23.2705H27.1426Z" fill="#F6F6F6"/>
<path d="M51.3995 34.4582C51.3995 34.0885 51.4949 33.748 51.6428 33.4347C51.2536 32.6078 50.4267 32.0261 49.4538 32.0261C48.1113 32.0261 47.0217 33.1157 47.0217 34.4582C47.0217 35.8007 48.1113 36.8903 49.4538 36.8903C50.4267 36.8903 51.2536 36.3085 51.6428 35.4816C51.4949 35.1684 51.3995 34.8279 51.3995 34.4582Z" fill="#F6F6F6"/>
<path d="M20.2686 34.4582C20.2686 34.0885 20.3639 33.748 20.5118 33.4347C20.1226 32.6078 19.2957 32.0261 18.3229 32.0261C16.9803 32.0261 15.8907 33.1157 15.8907 34.4582C15.8907 35.8007 16.9803 36.8903 18.3229 36.8903C19.2957 36.8903 20.1226 36.3085 20.5118 35.4816C20.3639 35.1684 20.2686 34.8279 20.2686 34.4582Z" fill="#F6F6F6"/>
<path d="M33.8883 33.4854C33.8883 31.8685 34.7736 30.4735 36.0772 29.7147C35.4312 29.3391 34.6899 29.1076 33.8883 29.1076C31.4698 29.1076 29.5105 31.0669 29.5105 33.4854C29.5105 35.9039 31.4698 37.8632 33.8883 37.8632C34.6899 37.8632 35.4312 37.6317 36.0772 37.2562C34.7736 36.4973 33.8883 35.1023 33.8883 33.4854Z" fill="#F6F6F6"/>
<path d="M32.9156 43.7003H28.5377C26.3878 43.7003 24.6464 45.4416 24.6464 47.5916V51.9694H29.0242V47.5916C29.0242 45.4416 30.7656 43.7003 32.9156 43.7003Z" fill="#F6F6F6"/>
<path d="M51.3995 41.7545H47.0217C44.8717 41.7545 43.1303 43.4959 43.1303 45.6459V48.078H47.5081V45.6459C47.5081 43.4959 49.2495 41.7545 51.3995 41.7545Z" fill="#F6F6F6"/>
<path d="M20.2685 41.7545H15.8907C13.7407 41.7545 11.9993 43.4959 11.9993 45.6459V48.078H16.3771V45.6459C16.3771 43.4959 18.1185 41.7545 20.2685 41.7545Z" fill="#F6F6F6"/>
<path d="M30.0825 17.1435L25.6191 15.1628L27.1426 23.2705H31.5204L30.2985 16.7719L30.0825 17.1435Z" fill="#F6F6F6"/>
<path d="M49.4541 38.3496C47.308 38.3496 45.5627 36.6043 45.5627 34.4582C45.5627 32.3121 47.308 30.5668 49.4541 30.5668C51.6002 30.5668 53.3454 32.3121 53.3454 34.4582C53.3454 36.6043 51.6002 38.3496 49.4541 38.3496ZM49.4541 33.4854C48.9171 33.4854 48.4812 33.9212 48.4812 34.4582C48.4812 34.9952 48.9171 35.4311 49.4541 35.4311C49.9911 35.4311 50.4269 34.9952 50.4269 34.4582C50.4269 33.9212 49.9911 33.4854 49.4541 33.4854Z" fill="#141315"/>
<path d="M57.2368 48.0781H54.3183V45.6459C54.3183 44.3054 53.2268 43.2138 51.8862 43.2138H45.5627V40.2953H51.8862C54.8378 40.2953 57.2368 42.6943 57.2368 45.6459V48.0781Z" fill="#141315"/>
<path d="M18.3231 38.3496C16.177 38.3496 14.4317 36.6043 14.4317 34.4582C14.4317 32.3121 16.177 30.5668 18.3231 30.5668C20.4692 30.5668 22.2145 32.3121 22.2145 34.4582C22.2145 36.6043 20.4692 38.3496 18.3231 38.3496ZM18.3231 33.4854C17.7861 33.4854 17.3502 33.9212 17.3502 34.4582C17.3502 34.9952 17.7861 35.4311 18.3231 35.4311C18.8601 35.4311 19.2959 34.9952 19.2959 34.4582C19.2959 33.9212 18.8601 33.4854 18.3231 33.4854Z" fill="#141315"/>
<path d="M13.4588 48.0781H10.5403V45.6459C10.5403 42.6943 12.9393 40.2953 15.8909 40.2953H22.2144V43.2138H15.8909C14.5504 43.2138 13.4588 44.3054 13.4588 45.6459V48.0781Z" fill="#141315"/>
<path d="M33.8885 39.3224C30.6704 39.3224 28.0515 36.7035 28.0515 33.4853C28.0515 30.2672 30.6704 27.6483 33.8885 27.6483C37.1067 27.6483 39.7256 30.2672 39.7256 33.4853C39.7256 36.7035 37.1067 39.3224 33.8885 39.3224ZM33.8885 30.5668C32.2794 30.5668 30.97 31.8762 30.97 33.4853C30.97 35.0944 32.2794 36.4039 33.8885 36.4039C35.4976 36.4039 36.8071 35.0944 36.8071 33.4853C36.8071 31.8762 35.4976 30.5668 33.8885 30.5668Z" fill="#141315"/>
<path d="M44.5899 51.9695H41.6714V47.5917C41.6714 46.2511 40.5798 45.1596 39.2393 45.1596H28.538C27.1974 45.1596 26.1059 46.2511 26.1059 47.5917V51.9695H23.1873V47.5917C23.1873 44.6401 25.5864 42.241 28.538 42.241H39.2393C42.1909 42.241 44.5899 44.6401 44.5899 47.5917V51.9695Z" fill="#141315"/>
<path d="M40.6343 24.7297H27.1409C26.4385 24.7297 25.8373 24.2296 25.707 23.5409L24.1835 15.4332C24.0842 14.9 24.2866 14.3552 24.7127 14.0186C25.1369 13.684 25.7128 13.6081 26.2109 13.8299L29.4796 15.2814L32.6278 9.88989C33.1531 8.99292 34.6241 8.99292 35.1494 9.88989L38.2975 15.2814L41.5663 13.8299C42.0605 13.6081 42.6384 13.684 43.0645 14.0186C43.4906 14.3552 43.6929 14.9 43.5937 15.4332L42.0702 23.5409C41.9399 24.2296 41.3367 24.7297 40.6343 24.7297ZM28.3531 21.8111H39.4241L40.2101 17.624L38.2858 18.4782C37.6029 18.7778 36.8091 18.5229 36.4336 17.8789L33.8886 13.5186L31.3417 17.8808C30.9662 18.5249 30.1684 18.7778 29.4894 18.4801L27.5651 17.626L28.3531 21.8111Z" fill="#2A7BBD"/>
<path d="M2.75732 49.0509H65.0195V51.9694H2.75732V49.0509Z" fill="#141315"/>
</svg>
