<svg width="62" height="68" viewBox="0 0 62 68" fill="none" xmlns="http://www.w3.org/2000/svg">
<path d="M11.8433 6.97141C25.3017 6.97141 34.5437 0 41.0287 0C47.5137 0 61.1336 3.72795 61.1336 33.5612C61.1336 63.3945 42.811 67.7723 35.6781 67.7723C2.27638 67.7743 -11.9914 6.97141 11.8433 6.97141Z" fill="#F6F6F6"/>
<path d="M12.3256 56.0183H16.217V57.964H12.3256V56.0183Z" fill="#2A7BBD"/>
<path d="M23.5136 56.0183H27.405V57.964H23.5136V56.0183Z" fill="#2A7BBD"/>
<path d="M18.6488 60.8824H20.5945V64.7738H18.6488V60.8824Z" fill="#2A7BBD"/>
<path d="M18.6488 49.6948H20.5945V53.5861H18.6488V49.6948Z" fill="#2A7BBD"/>
<path d="M44.6729 19.7799V23.6713H8.67763V19.7799C8.67763 17.6397 10.4288 15.8885 12.569 15.8885H40.7815C42.9218 15.8885 44.6729 17.6397 44.6729 19.7799Z" fill="#F6F6F6"/>
<path d="M44.6729 23.6713L44.671 42.1553C44.671 44.3034 42.9276 46.0467 40.7796 46.0467H12.569C10.4288 46.0467 8.67763 44.2956 8.67763 42.1553V23.6713H44.6729Z" fill="#F6F6F6"/>
<path d="M16.9468 15.8885H12.569C10.4288 15.8885 8.67763 17.6397 8.67763 19.7799V23.6713H13.0554V19.7799C13.0554 17.6397 14.8066 15.8885 16.9468 15.8885Z" fill="#F6F6F6"/>
<path d="M13.0554 42.1553V23.6713H8.67763V42.1553C8.67763 44.2956 10.4288 46.0467 12.569 46.0467H16.9468C14.8066 46.0467 13.0554 44.2956 13.0554 42.1553Z" fill="#F6F6F6"/>
<path d="M41.2681 55.7752C47.4469 55.7752 52.4558 50.7663 52.4558 44.5875C52.4558 38.4087 47.4469 33.3998 41.2681 33.3998C35.0892 33.3998 30.0803 38.4087 30.0803 44.5875C30.0803 50.7663 35.0892 55.7752 41.2681 55.7752Z" fill="#F6F6F6"/>
<path d="M34.4581 44.5875C34.4581 39.159 38.3262 34.6353 43.457 33.6177C42.7487 33.4776 42.0171 33.3998 41.2681 33.3998C35.0885 33.3998 30.0803 38.408 30.0803 44.5875C30.0803 50.767 35.0885 55.7752 41.2681 55.7752C42.0171 55.7752 42.7487 55.6994 43.457 55.5573C38.3262 54.5397 34.4581 50.016 34.4581 44.5875Z" fill="#F6F6F6"/>
<path d="M39.3225 49.9381C38.9373 49.9381 38.5637 49.7844 38.2913 49.5101L34.8863 46.1051L36.9507 44.0407L39.2486 46.3366L44.5467 40.2252L46.7512 42.1359L40.4277 49.4322C40.163 49.7377 39.7817 49.9206 39.377 49.9342C39.3556 49.9381 39.3381 49.9381 39.3225 49.9381Z" fill="#2A7BBD"/>
<path d="M23.757 47.5059H12.5692C9.61764 47.5059 7.2186 45.1069 7.2186 42.1553V19.7798C7.2186 16.8282 9.61764 14.4291 12.5692 14.4291H40.7818C43.7314 14.4291 46.1324 16.8282 46.1324 19.7798V27.5626H43.2139V19.7798C43.2139 18.4392 42.1224 17.3477 40.7818 17.3477H12.5692C11.2287 17.3477 10.1371 18.4392 10.1371 19.7798V42.1553C10.1371 43.4958 11.2287 44.5874 12.5692 44.5874H23.757V47.5059Z" fill="#141315"/>
<path d="M8.67763 22.2119H44.6729V25.1305H8.67763V22.2119Z" fill="#141315"/>
<path d="M15.0008 11.9971H17.9194V19.7798H15.0008V11.9971Z" fill="#141315"/>
<path d="M35.4308 11.9971H38.3493V19.7798H35.4308V11.9971Z" fill="#141315"/>
<path d="M41.2683 57.2344C34.2949 57.2344 28.6213 51.5607 28.6213 44.5874C28.6213 37.614 34.2949 31.9404 41.2683 31.9404C48.2416 31.9404 53.9153 37.614 53.9153 44.5874C53.9153 51.5607 48.2416 57.2344 41.2683 57.2344ZM41.2683 34.8589C35.904 34.8589 31.5398 39.2231 31.5398 44.5874C31.5398 49.9516 35.904 54.3158 41.2683 54.3158C46.6325 54.3158 50.9967 49.9516 50.9967 44.5874C50.9967 39.2231 46.6325 34.8589 41.2683 34.8589Z" fill="#141315"/>
</svg>
