<svg width="62" height="68" viewBox="0 0 62 68" fill="none" xmlns="http://www.w3.org/2000/svg">
<path d="M11.8433 6.97141C25.3017 6.97141 34.5437 0 41.0287 0C47.5137 0 61.1336 3.72795 61.1336 33.5612C61.1336 63.3945 42.811 67.7723 35.6781 67.7723C2.27638 67.7743 -11.9914 6.97141 11.8433 6.97141Z" fill="#F6F6F6"/>
<path d="M15.9167 8.9032L18.6684 6.15158L20.0442 7.52739L17.2926 10.279L15.9167 8.9032Z" fill="#2A7BBD"/>
<path d="M8.00525 16.8111L10.7569 14.0595L12.1327 15.4353L9.38106 18.1869L8.00525 16.8111Z" fill="#2A7BBD"/>
<path d="M8.00732 7.17963L9.38314 5.80381L12.1348 8.55544L10.7589 9.93125L8.00732 7.17963Z" fill="#2A7BBD"/>
<path d="M54.2401 20.9882C52.631 20.9882 51.3215 19.6787 51.3215 18.0697C51.3215 16.4606 52.631 15.1511 54.2401 15.1511C55.8492 15.1511 57.1586 16.4606 57.1586 18.0697C57.1586 19.6787 55.8492 20.9882 54.2401 20.9882ZM54.2401 17.0968C53.705 17.0968 53.2672 17.5326 53.2672 18.0697C53.2672 18.6067 53.705 19.0425 54.2401 19.0425C54.7751 19.0425 55.2129 18.6067 55.2129 18.0697C55.2129 17.5326 54.7751 17.0968 54.2401 17.0968Z" fill="#2A7BBD"/>
<path d="M38.8361 55.7751H22.2977C21.2237 55.7751 20.3521 54.9034 20.3521 53.8294V39.2367C20.3521 38.1627 21.2237 37.291 22.2977 37.291H38.8361C39.9101 37.291 40.7818 38.1627 40.7818 39.2367V53.8294C40.7818 54.9034 39.9101 55.7751 38.8361 55.7751Z" fill="#F6F6F6"/>
<path d="M27.1615 37.291H33.9714V43.1281H27.1615V37.291Z" fill="#F6F6F6"/>
<path d="M47.5914 28.5355C47.5914 19.4024 39.9681 11.9971 30.5665 11.9971C21.165 11.9971 13.5417 19.4024 13.5417 28.5355H47.5914Z" fill="#F6F6F6"/>
<path d="M24.7299 53.8294V39.2367C24.7299 38.1627 25.6015 37.291 26.6755 37.291H22.2977C21.2237 37.291 20.3521 38.1627 20.3521 39.2367V53.8294C20.3521 54.9034 21.2237 55.7751 22.2977 55.7751H26.6755C25.6015 55.7751 24.7299 54.9034 24.7299 53.8294Z" fill="#F6F6F6"/>
<path d="M27.1615 37.291H31.5393V43.1281H27.1615V37.291Z" fill="#F6F6F6"/>
<path d="M32.7554 12.1488C32.0375 12.0593 31.3098 11.9971 30.5665 11.9971C21.163 11.9971 13.5417 19.4024 13.5417 28.5355H17.9196C17.9196 20.1242 24.389 13.1937 32.7554 12.1488Z" fill="#F6F6F6"/>
<path d="M38.8363 57.2345H22.2979C20.4203 57.2345 18.8929 55.7071 18.8929 53.8295V39.2368C18.8929 37.3592 20.4203 35.8318 22.2979 35.8318H38.8363C40.7139 35.8318 42.2412 37.3592 42.2412 39.2368V53.8295C42.2412 55.7071 40.7139 57.2345 38.8363 57.2345ZM22.2979 38.7504C22.0294 38.7504 21.8115 38.9683 21.8115 39.2368V53.8295C21.8115 54.098 22.0294 54.3159 22.2979 54.3159H38.8363C39.1048 54.3159 39.3227 54.098 39.3227 53.8295V39.2368C39.3227 38.9683 39.1048 38.7504 38.8363 38.7504H22.2979Z" fill="#141315"/>
<path d="M33.9717 44.5875H27.1618C26.3563 44.5875 25.7025 43.9337 25.7025 43.1282V37.2911C25.7025 36.4856 26.3563 35.8318 27.1618 35.8318H33.9717C34.7772 35.8318 35.431 36.4856 35.431 37.2911V43.1282C35.431 43.9337 34.7772 44.5875 33.9717 44.5875ZM28.6211 41.6689H32.5124V38.7504H28.6211V41.6689Z" fill="#141315"/>
<path d="M32.999 50.4246H36.8904V53.3432H32.999V50.4246Z" fill="#141315"/>
<path d="M40.0234 37.9848L45.8549 28.2505L48.3607 29.7516L42.5292 39.4859L40.0234 37.9848Z" fill="#141315"/>
<path d="M12.7784 29.7807L15.275 28.2728L21.1114 37.9361L18.6148 39.444L12.7784 29.7807Z" fill="#141315"/>
<path d="M22.4329 29.6675L25.042 28.3629L28.9314 36.1417L26.3223 37.4463L22.4329 29.6675Z" fill="#2A7BBD"/>
<path d="M32.1591 36.1612L36.0485 28.3824L38.6576 29.687L34.7682 37.4658L32.1591 36.1612Z" fill="#2A7BBD"/>
<path d="M47.5916 29.9948H13.542C12.7365 29.9948 12.0828 29.341 12.0828 28.5355C12.0828 18.6105 20.3753 10.5378 30.5668 10.5378C40.7584 10.5378 49.0509 18.6105 49.0509 28.5355C49.0509 29.341 48.3972 29.9948 47.5916 29.9948ZM15.0733 27.0762H46.0604C45.2996 19.4433 38.6434 13.4564 30.5668 13.4564C22.4903 13.4564 15.8341 19.4433 15.0733 27.0762Z" fill="#2A7BBD"/>
</svg>
