<svg width="62" height="68" viewBox="0 0 62 68" fill="none" xmlns="http://www.w3.org/2000/svg">
<path d="M11.8433 6.97141C25.3017 6.97141 34.5437 0 41.0287 0C47.5137 0 61.1336 3.72795 61.1336 33.5612C61.1336 63.3945 42.811 67.7723 35.6781 67.7723C2.27638 67.7743 -11.9914 6.97141 11.8433 6.97141Z" fill="#F6F6F6"/>
<path d="M10.4842 6.71136L13.2358 3.95974L14.6116 5.33555L11.86 8.08718L10.4842 6.71136Z" fill="#2A7BBD"/>
<path d="M2.5733 14.6193L5.32493 11.8677L6.70074 13.2435L3.94912 15.9951L2.5733 14.6193Z" fill="#2A7BBD"/>
<path d="M2.57404 4.99036L3.94985 3.61455L6.70147 6.36617L5.32566 7.74198L2.57404 4.99036Z" fill="#2A7BBD"/>
<path d="M53.1539 35.5282C51.5448 35.5282 50.2354 34.2187 50.2354 32.6096C50.2354 31.0006 51.5448 29.6911 53.1539 29.6911C54.763 29.6911 56.0724 31.0006 56.0724 32.6096C56.0724 34.2187 54.7649 35.5282 53.1539 35.5282ZM53.1539 31.6368C52.6188 31.6368 52.181 32.0746 52.181 32.6096C52.181 33.1447 52.6188 33.5825 53.1539 33.5825C53.689 33.5825 54.1267 33.1447 54.1267 32.6096C54.1267 32.0746 53.6909 31.6368 53.1539 31.6368Z" fill="#2A7BBD"/>
<path d="M14.5145 11.9971H46.6184V55.7751H14.5145V11.9971Z" fill="#F6F6F6"/>
<path d="M14.5145 11.9971H18.4058V55.7751H14.5145V11.9971Z" fill="#F6F6F6"/>
<path d="M16.9328 24.6441C20.4252 24.6441 23.2563 21.8129 23.2563 18.3206C23.2563 14.8282 20.4252 11.9971 16.9328 11.9971C13.4404 11.9971 10.6093 14.8282 10.6093 18.3206C10.6093 21.8129 13.4404 24.6441 16.9328 24.6441Z" fill="#F6F6F6"/>
<path d="M12.6916 23.0291L8.67761 29.8585L11.816 29.662L13.2033 32.4268L16.9429 26.0761L12.6916 23.0291Z" fill="#F6F6F6"/>
<path d="M21.19 23.0078L25.2157 29.8585L22.0773 29.662L20.6822 32.4268L16.9426 26.0761L16.0884 24.5974L21.19 23.0078Z" fill="#F6F6F6"/>
<path d="M14.5007 18.3206C14.5007 15.511 16.3452 13.1586 18.8785 12.3337C18.2617 12.1333 17.6158 11.9971 16.9328 11.9971C13.4403 11.9971 10.6093 14.8281 10.6093 18.3206C10.6093 21.8131 13.4403 24.6441 16.9328 24.6441C17.6158 24.6441 18.2617 24.5079 18.8785 24.3075C16.3452 23.4825 14.5007 21.1301 14.5007 18.3206Z" fill="#F6F6F6"/>
<path d="M42.7272 57.2344H18.4061C15.4545 57.2344 13.0554 54.8354 13.0554 51.8838V39.2368H15.974V51.8838C15.974 53.2244 17.0655 54.3159 18.4061 54.3159H42.7272C44.0678 54.3159 45.1593 53.2244 45.1593 51.8838V15.8885C45.1593 14.5479 44.0678 13.4564 42.7272 13.4564H28.1345V10.5378H42.7272C45.6788 10.5378 48.0779 12.9369 48.0779 15.8885V51.8838C48.0779 54.8354 45.6788 57.2344 42.7272 57.2344Z" fill="#141315"/>
<path d="M16.933 26.1034C12.6408 26.1034 9.15027 22.6128 9.15027 18.3206C9.15027 14.0284 12.6408 10.5378 16.933 10.5378C21.2252 10.5378 24.7158 14.0284 24.7158 18.3206C24.7158 22.6128 21.2252 26.1034 16.933 26.1034ZM16.933 13.4564C14.2499 13.4564 12.0688 15.6375 12.0688 18.3206C12.0688 21.0037 14.2499 23.1848 16.933 23.1848C19.6161 23.1848 21.7973 21.0037 21.7973 18.3206C21.7973 15.6375 19.6161 13.4564 16.933 13.4564Z" fill="#2A7BBD"/>
<path d="M13.2014 33.8861C13.1839 33.8861 13.1684 33.8861 13.1528 33.8861C12.6197 33.8666 12.1372 33.5592 11.8959 33.0805L10.9444 31.1777L8.76916 31.3139C8.23604 31.3508 7.71849 31.0823 7.43442 30.6231C7.15035 30.164 7.14646 29.5861 7.41885 29.1211L11.4328 22.2897L13.9505 23.7685L11.3277 28.2319L11.7247 28.2066C12.3025 28.1385 12.859 28.4848 13.1217 29.0082L13.3065 29.374L15.6861 25.3347L18.2019 26.8174L14.4603 33.1681C14.1957 33.6137 13.7171 33.8861 13.2014 33.8861Z" fill="#2A7BBD"/>
<path d="M20.6823 33.886C20.1667 33.886 19.688 33.6136 19.4254 33.1681L14.8257 25.3269L17.3532 23.8677L20.585 29.3837L20.7757 29.0062C21.0383 28.4828 21.5831 28.1443 22.1707 28.2085L22.5696 28.2338L19.9351 23.747L22.4509 22.2683L26.4765 29.121C26.7509 29.5861 26.7451 30.1639 26.461 30.6231C26.1789 31.0823 25.671 31.3878 25.1262 31.3138L22.9471 31.1776L21.9878 33.0825C21.7466 33.5592 21.266 33.8646 20.7309 33.8841C20.7154 33.886 20.6978 33.886 20.6823 33.886Z" fill="#2A7BBD"/>
</svg>
