<svg width="61" height="68" viewBox="0 0 61 68" fill="none" xmlns="http://www.w3.org/2000/svg">
<path d="M48.8011 6.42631C35.3466 6.67731 25.9742 -0.12094 19.4912 0.00163813C13.0081 0.124217 -0.541669 4.1051 0.0167447 33.9345C0.575158 63.7639 18.9756 67.7973 26.1085 67.665C59.5024 67.0405 72.6319 5.98075 48.8011 6.42631Z" fill="#F6F6F6"/>
<path d="M10.5348 24.5915V45.9941C10.5348 47.0642 11.4104 47.9398 12.4805 47.9398H38.7473C40.8973 47.9398 42.6387 46.1984 42.6387 44.0484V24.5915H10.5348Z" fill="#F6F6F6"/>
<path d="M8.58942 17.7814H44.5847V24.5914H8.58942V17.7814Z" fill="#F6F6F6"/>
<path d="M39.2341 11.9444H13.9401L8.58942 17.7815H44.5847L39.2341 11.9444Z" fill="#F6F6F6"/>
<path d="M46.5305 35.2927C44.1372 35.2927 42.0748 36.7266 41.1798 38.7813C40.2848 36.7266 38.2223 35.2927 35.8291 35.2927C32.609 35.2927 29.9921 37.8999 29.9921 41.1064C29.9921 47.4046 41.1798 55.7224 41.1798 55.7224C41.1798 55.7224 52.3675 47.4046 52.3675 41.1064C52.3675 37.8999 49.7506 35.2927 46.5305 35.2927Z" fill="#F6F6F6"/>
<path d="M14.9126 45.9941V24.5915H10.5348V45.9941C10.5348 47.0642 11.4104 47.9398 12.4805 47.9398H16.8583C15.7882 47.9398 14.9126 47.0642 14.9126 45.9941Z" fill="#F6F6F6"/>
<path d="M8.58942 17.7814H12.9672V24.5914H8.58942V17.7814Z" fill="#F6F6F6"/>
<path d="M13.9401 11.9444L8.58942 17.7815H12.9672L18.3179 11.9444H13.9401Z" fill="#F6F6F6"/>
<path d="M45.5572 38.7814C46.1623 37.3902 47.3103 36.2967 48.7267 35.7286C48.0477 35.4523 47.3083 35.2947 46.5301 35.2947C45.3646 35.2947 44.2808 35.6391 43.3683 36.2267C44.3295 36.8415 45.098 37.7268 45.5572 38.7814Z" fill="#F6F6F6"/>
<path d="M34.3699 41.1064C34.3699 38.6743 35.8778 36.5943 38.0103 35.7266C37.3351 35.4542 36.6035 35.2927 35.8291 35.2927C32.609 35.2927 29.9921 37.8999 29.9921 41.1064C29.9921 47.4046 41.1798 55.7224 41.1798 55.7224C41.1798 55.7224 42.0865 55.0434 43.3687 53.948C40.1136 51.1676 34.3699 45.6262 34.3699 41.1064Z" fill="#F6F6F6"/>
<path d="M10.4787 6.06805L13.2303 3.31643L14.6061 4.69224L11.8545 7.44387L10.4787 6.06805Z" fill="#2A7BBD"/>
<path d="M2.56787 13.9765L5.31949 11.2249L6.6953 12.6007L3.94368 15.3523L2.56787 13.9765Z" fill="#2A7BBD"/>
<path d="M2.56989 4.34888L3.9457 2.97307L6.69732 5.72469L5.32151 7.1005L2.56989 4.34888Z" fill="#2A7BBD"/>
<path d="M45.5577 8.29819C43.9486 8.29819 42.6392 6.98874 42.6392 5.37966C42.6392 3.77057 43.9486 2.46112 45.5577 2.46112C47.1668 2.46112 48.4762 3.77057 48.4762 5.37966C48.4762 6.98874 47.1668 8.29819 45.5577 8.29819ZM45.5577 4.40681C45.0207 4.40681 44.5849 4.84459 44.5849 5.37966C44.5849 5.91472 45.0207 6.3525 45.5577 6.3525C46.0947 6.3525 46.5305 5.91472 46.5305 5.37966C46.5305 4.84459 46.0947 4.40681 45.5577 4.40681Z" fill="#2A7BBD"/>
<path d="M41.18 57.1817C40.8746 57.1817 40.5691 57.0844 40.3103 56.8938C39.104 55.9988 28.5331 47.9416 28.5331 41.1064C28.5331 37.0964 31.8057 33.8334 35.8294 33.8334C37.8977 33.8334 39.8258 34.7012 41.18 36.1566C42.5342 34.7012 44.4624 33.8334 46.5307 33.8334C50.5544 33.8334 53.827 37.0964 53.827 41.1064C53.827 47.9416 43.2561 55.9968 42.0498 56.8918C41.791 57.0844 41.4855 57.1817 41.18 57.1817ZM35.8294 36.752C33.4148 36.752 31.4516 38.7054 31.4516 41.1064C31.4516 45.2741 37.8257 51.2065 41.18 53.8779C44.5344 51.2046 50.9085 45.2644 50.9085 41.1064C50.9085 38.7054 48.9453 36.752 46.5307 36.752C44.7854 36.752 43.2094 37.7774 42.5187 39.365C42.0556 40.4293 40.3064 40.4293 39.8434 39.365C39.1507 37.7774 37.5747 36.752 35.8294 36.752Z" fill="#2A7BBD"/>
<path d="M27.0734 49.3989H12.4807C10.6031 49.3989 9.07574 47.8715 9.07574 45.994V24.5913C9.07574 23.7858 9.7295 23.1321 10.535 23.1321H42.6389C43.4444 23.1321 44.0982 23.7858 44.0982 24.5913V30.4284H41.1797V26.0506H11.9943V45.994C11.9943 46.2586 12.2161 46.4804 12.4807 46.4804H27.0734V49.3989Z" fill="#141315"/>
<path d="M22.2092 28.9693H30.9648V31.8878H22.2092V28.9693Z" fill="#141315"/>
<path d="M44.5849 26.0507H8.58964C7.78412 26.0507 7.13037 25.3969 7.13037 24.5914V17.7815C7.13037 16.976 7.78412 16.3222 8.58964 16.3222H44.5849C45.3904 16.3222 46.0442 16.976 46.0442 17.7815V24.5914C46.0442 25.3969 45.3904 26.0507 44.5849 26.0507ZM10.0489 23.1321H43.1257V19.2407H10.0489V23.1321Z" fill="#141315"/>
<path d="M43.5087 18.768L38.592 13.4037H14.5821L9.66536 18.768L7.51343 16.795L12.8641 10.958C13.1404 10.6564 13.5315 10.4852 13.94 10.4852H39.234C39.6426 10.4852 40.0337 10.6564 40.31 10.958L45.6607 16.795L43.5087 18.768Z" fill="#141315"/>
</svg>
