<svg width="62" height="68" viewBox="0 0 62 68" fill="none" xmlns="http://www.w3.org/2000/svg">
<path d="M49.2909 6.97206C35.8332 6.97206 26.5911 0 20.1055 0C13.6198 0 0 3.72924 0 33.5632C0 63.3971 18.3219 67.7749 25.4561 67.7749C58.8572 67.7749 73.1256 6.97206 49.2909 6.97206Z" fill="#F6F6F6"/>
<path d="M47.8036 15.6866L50.5552 12.935L51.931 14.3108L49.1794 17.0624L47.8036 15.6866Z" fill="#2A7BBD"/>
<path d="M55.7144 7.77673L58.466 5.02511L59.8418 6.40092L57.0902 9.15254L55.7144 7.77673Z" fill="#2A7BBD"/>
<path d="M55.3669 14.3007L56.7428 12.9249L59.4944 15.6765L58.1186 17.0523L55.3669 14.3007Z" fill="#2A7BBD"/>
<path d="M47.7817 6.71838L49.1575 5.34257L51.9091 8.0942L50.5333 9.47001L47.7817 6.71838Z" fill="#2A7BBD"/>
<path d="M21.8102 52.3715H12.0827C9.93352 52.3715 8.19128 50.6293 8.19128 48.4801V15.4034V15.4034C8.19128 17.5525 9.93351 19.2948 12.0827 19.2948H39.3224V48.4801C39.3224 50.6293 37.5801 52.3715 35.431 52.3715H21.8102Z" fill="#F6F6F6"/>
<path d="M35.431 19.2949H12.0827C9.9424 19.2949 8.19128 17.5437 8.19128 15.4035V15.4035C8.19128 13.2632 9.9424 11.5121 12.0827 11.5121H35.431V19.2949Z" fill="#F6F6F6"/>
<path d="M39.7942 53.4693C36.4407 56.8228 31.5394 56.2209 31.5394 56.2209C34.9789 51.4056 32.3132 49.9438 34.291 47.9661C35.8107 46.4464 38.2745 46.4464 39.7942 47.9661C41.3139 49.4857 41.3139 51.9496 39.7942 53.4693Z" fill="#F6F6F6"/>
<path d="M40.7178 49.5163L51.925 40.0213L51.9055 40.0018C51.9639 39.9629 52.0222 39.9046 52.0806 39.8462C53.2286 38.6982 53.2286 36.8693 52.0806 35.7213C50.9327 34.5734 49.1037 34.5734 47.9558 35.7213C47.8974 35.7797 47.839 35.8381 47.8001 35.8964L47.7806 35.877L38.3051 47.0647L40.7178 49.5163Z" fill="#F6F6F6"/>
<path d="M38.1823 47.9659C38.4272 47.7211 38.7023 47.5303 38.9883 47.3644C37.4995 46.5003 35.5658 46.6911 34.2909 47.9659C32.3133 49.9437 34.9789 51.4054 31.5394 56.2207C31.5394 56.2207 33.4495 56.455 35.7007 55.8155C38.7013 51.3288 36.2626 49.8857 38.1823 47.9659Z" fill="#F6F6F6"/>
<path d="M42.1972 47.0648L51.6727 35.8771L51.6922 35.8964C51.7311 35.8381 51.7894 35.7797 51.8479 35.7214C51.8825 35.6867 51.9287 35.676 51.9646 35.6435C50.8128 34.5974 49.0698 34.6081 47.9565 35.7214C47.8981 35.7797 47.8397 35.8381 47.8008 35.8964L47.7813 35.8771L38.3058 47.0648L40.7186 49.5163L42.8406 47.7184L42.1972 47.0648Z" fill="#F6F6F6"/>
<path d="M12.0827 48.4801V19.2948C9.93355 19.2948 8.19128 17.5525 8.19128 15.4034V48.4801C8.19128 50.6293 9.93355 52.3715 12.0827 52.3715H15.9741C13.8249 52.3715 12.0827 50.6293 12.0827 48.4801Z" fill="#F6F6F6"/>
<path d="M12.0827 15.4035C12.0827 13.2633 13.8338 11.5121 15.9741 11.5121H12.0827C9.94245 11.5121 8.19128 13.2633 8.19128 15.4035C8.19128 17.5437 9.94245 19.2949 12.0827 19.2949H15.9741C13.8338 19.2949 12.0827 17.5437 12.0827 15.4035Z" fill="#F6F6F6"/>
<path d="M33.4969 47.1723L33.4968 47.1723C32.9076 47.7621 32.6118 48.3427 32.4675 48.9145C32.3249 49.4792 32.3319 50.0298 32.3385 50.5502L32.3386 50.5569C32.3462 51.17 32.3535 51.8064 32.1438 52.5963C31.9341 53.3865 31.5045 54.3385 30.626 55.5687C30.3959 55.8908 30.3518 56.3107 30.512 56.6729C30.671 57.0358 31.0096 57.2867 31.4016 57.3351C31.4674 57.3439 31.8562 57.3877 32.462 57.3877C34.219 57.3877 37.8349 57.0161 40.5883 54.2627C41.5351 53.316 42.0573 52.057 42.0573 50.7175C42.0573 49.3781 41.5351 48.1181 40.5882 47.1722C38.6324 45.2164 35.4508 45.2184 33.4969 47.1723ZM35.0847 48.7601C35.6244 48.2204 36.3334 47.9509 37.0421 47.9509C37.7519 47.9509 38.4608 48.2204 39.0005 48.7601C39.5234 49.283 39.8116 49.9774 39.8116 50.7175C39.8116 51.4577 39.5234 52.152 39.0005 52.6749C37.3058 54.3697 35.1143 54.9181 33.5633 55.0777C34.6147 53.0416 34.5971 51.6197 34.5833 50.5296C34.578 50.0715 34.5752 49.7633 34.6375 49.4988C34.6973 49.2451 34.8194 49.0254 35.0847 48.7601Z" fill="#2A7BBD" stroke="#2A7BBD" stroke-width="0.3"/>
<path d="M39.1623 47.7905L39.1622 47.7906C38.7621 48.262 38.0558 48.3235 37.5801 47.9212L37.58 47.9211C37.1073 47.5208 37.0481 46.8124 37.4494 46.3388C37.4494 46.3388 37.4494 46.3388 37.4494 46.3387L46.9252 35.151L46.9252 35.1509C46.983 35.0829 47.0489 35.0212 47.1214 34.9688C47.124 34.9662 47.1262 34.9639 47.1281 34.9621L47.1288 34.9614C47.1342 34.956 47.1366 34.9535 47.1386 34.9514L47.1434 34.9461L47.1435 34.9462C48.7349 33.3538 51.2991 33.3509 52.8754 34.9272L52.8754 34.9272C54.4502 36.503 54.4503 39.0652 52.8754 40.6401C52.858 40.6575 52.8407 40.6741 52.8247 40.6893C52.7755 40.7587 52.7173 40.8221 52.6513 40.8777C52.6512 40.8777 52.6512 40.8778 52.6512 40.8778L41.444 50.373L39.1623 47.7905ZM39.1623 47.7905L48.4785 36.7912C48.587 36.7133 48.6838 36.6172 48.7604 36.505C49.4728 35.8049 50.5772 35.8066 51.2875 36.5149C51.9948 37.223 52.0011 38.3289 51.2727 39.0746C51.176 39.1407 51.0925 39.2219 51.0239 39.3138L39.9922 48.6603C39.9921 48.6603 39.9921 48.6603 39.9921 48.6603M39.1623 47.7905L39.9921 48.6603M39.9921 48.6603C39.5195 49.0605 39.4603 49.7688 39.8615 50.2425L39.9921 48.6603ZM39.8615 50.2425C40.0832 50.5047 40.4004 50.6395 40.718 50.6395C40.9744 50.6395 41.2333 50.5519 41.4439 50.3731L39.8615 50.2425Z" fill="#2A7BBD" stroke="#2A7BBD" stroke-width="0.3"/>
<path d="M38.0997 38.7508C38.0997 39.4266 38.6467 39.9737 39.3225 39.9737C39.9983 39.9737 40.5454 39.4266 40.5454 38.7508V19.2949C40.5454 18.6191 39.9983 18.072 39.3225 18.072H36.654V11.5121C36.654 10.8363 36.1069 10.2892 35.4311 10.2892H12.0828C9.26278 10.2892 6.9686 12.5834 6.9686 15.4035C6.9686 18.2235 9.26278 20.5177 12.0828 20.5177H38.0997V38.7508ZM9.41429 15.4035C9.41429 13.9322 10.6115 12.7349 12.0828 12.7349H34.2083V18.072H12.0828C10.6115 18.072 9.41429 16.8748 9.41429 15.4035Z" fill="#141315" stroke="black" stroke-width="0.5"/>
<path d="M12.0828 53.5944H25.7027C26.3785 53.5944 26.9255 53.0473 26.9255 52.3715C26.9255 51.6957 26.3785 51.1487 25.7027 51.1487H12.0828C10.6115 51.1487 9.41429 49.9515 9.41429 48.4801V15.4034C9.41429 14.7276 8.86724 14.1805 8.19144 14.1805C7.51565 14.1805 6.9686 14.7276 6.9686 15.4034V48.4801C6.9686 51.3002 9.26278 53.5944 12.0828 53.5944Z" fill="#141315" stroke="black" stroke-width="0.5"/>
</svg>
