<svg width="928" height="966" viewBox="0 0 928 966" fill="none" xmlns="http://www.w3.org/2000/svg">
<g opacity="0.1">
<mask id="path-1-outside-1" maskUnits="userSpaceOnUse" x="-220.297" y="-203.611" width="1307.43" height="1316.23" fill="black">
<rect fill="white" x="-220.297" y="-203.611" width="1307.43" height="1316.23"/>
<path fill-rule="evenodd" clip-rule="evenodd" d="M896.766 524.709C905.697 530.337 912.046 537.811 915.81 547.13C919.554 556.628 920.635 567.871 919.054 580.861L900.556 578.557L901.376 574.053C903.173 559.285 900.023 547.151 891.925 537.653C883.827 528.156 871.557 522.383 855.114 520.335L783.264 511.389L785.57 492.439L926.588 509.998L924.38 528.147L896.766 524.709ZM814.276 306.688L850.532 419.535L856.272 418.008C869.645 413.792 880.569 407.241 889.043 398.355C897.689 389.415 903.334 379.068 905.977 367.314C908.62 355.559 907.937 343.441 903.926 330.959C899.916 318.478 893.376 308.112 884.305 299.862C875.29 291.783 864.619 286.485 852.293 283.969C840.021 281.624 827.285 282.532 814.083 286.694C800.881 290.857 790.012 297.578 781.476 306.86C772.941 316.142 767.375 327.029 764.78 339.521C762.412 352.131 763.452 365.361 767.902 379.21C771.363 389.982 776.407 399.219 783.036 406.92C789.719 414.793 797.623 420.587 806.747 424.301L815.281 410.312C807.803 407.021 801.395 402.356 796.057 396.319C790.89 390.228 786.961 382.993 784.269 374.615C779.49 359.74 779.821 346.078 785.262 333.629C790.875 321.126 800.546 312.146 814.276 306.688ZM865.09 307.05C876.347 313.292 884.064 322.91 888.239 335.905C892.468 349.071 891.784 361.338 886.184 372.706C880.811 384.192 871.63 392.641 858.641 398.054L827.906 302.39C841.664 299.371 854.058 300.924 865.09 307.05ZM722.937 176.211L677.453 175.36L649.595 204.543L635.675 191.356L773.48 46.9936L787.4 60.181L693.983 158.044L808.846 160.527L826.099 176.872L742.056 176.911L732.527 283.11L715.47 266.951L722.937 176.211ZM507.149 132.933C516.239 141.845 527.545 148.218 541.064 152.053C552.677 155.348 563.796 156.081 574.422 154.252C585.096 152.251 594.362 147.616 602.219 140.345L591.069 127.124C584.663 132.571 577.531 135.949 569.673 137.259C561.814 138.569 553.812 138.068 545.666 135.757C535.786 132.954 527.468 128.266 520.713 121.693C514.179 114.997 509.779 107.043 507.513 97.8324C505.468 88.4981 505.931 78.5712 508.902 68.0519C511.823 57.7049 516.595 49.0935 523.217 42.2177C530.012 35.391 537.918 30.9284 546.935 28.8299C556.174 26.608 565.734 26.8985 575.613 29.7012C583.76 32.0122 590.813 35.8755 596.772 41.2913C602.78 46.5347 607.087 53.1583 609.695 61.1622L626.104 55.759C623.214 45.4398 617.722 36.7108 609.629 29.572C601.757 22.3099 591.928 17.007 580.142 13.6634C566.623 9.82819 553.662 9.31791 541.26 12.1326C529.031 14.9965 518.399 20.8276 509.362 29.6261C500.325 38.4245 493.932 49.4629 490.182 62.7415C486.433 76.02 486.082 88.8657 489.129 101.278C492.225 113.519 498.232 124.07 507.149 132.933ZM335.594 3.21352C353.751 -0.468786 368.629 1.27569 380.226 8.44694C391.787 15.4425 399.415 27.8141 403.109 45.5621L420.995 131.49L403.014 135.137L398.515 113.523C395.784 121.585 390.696 128.478 383.252 134.199C375.984 139.886 366.709 143.873 355.427 146.161C339.914 149.307 326.807 148.119 316.104 142.598C305.401 137.077 298.787 128.254 296.264 116.129C293.813 104.355 296.069 94.0084 303.031 85.0878C310.169 76.1314 323.081 69.7584 341.767 65.9689L385.926 57.0134L384.17 48.5787C381.683 36.6297 376.45 28.2593 368.471 23.4675C360.455 18.5 350.013 17.3212 337.145 19.931C328.331 21.7186 320.18 24.9282 312.693 29.56C305.169 34.0161 299.029 39.3819 294.272 45.6577L282.903 33.4038C288.71 25.9992 296.221 19.7145 305.434 14.5494C314.611 9.20866 324.665 5.43004 335.594 3.21352ZM355.264 130.81C365.841 128.665 374.425 124.452 381.018 118.17C387.574 111.713 391.752 103.54 393.552 93.6514L388.834 70.9833L345.204 79.8315C321.405 84.6578 311.225 95.3299 314.664 111.848C316.346 119.931 320.766 125.719 327.924 129.212C335.044 132.53 344.158 133.062 355.264 130.81ZM79.7864 83.9274C97.5554 67.7428 115.376 59.3024 133.247 58.606C151.119 57.9096 166.874 64.984 180.513 79.829C194.152 94.6741 199.83 110.928 197.546 128.59C195.14 146.12 185.052 162.977 167.283 179.161L129.889 213.221L170.258 257.16L155.539 270.567L27.6731 131.394L79.7864 83.9274ZM155.012 166.601C168.803 154.039 176.605 141.455 178.418 128.848C180.11 116.108 175.902 104.237 165.794 93.2357C155.443 81.9693 143.881 76.6753 131.108 77.3536C118.213 77.8994 104.87 84.453 91.0792 97.0141L54.0827 130.712L118.016 200.298L155.012 166.601ZM605.769 787.125L652.251 931.316L665.98 920.474L626.033 798.292L736.738 864.598L749.622 854.424L710.097 731.908L820.169 798.715L834.531 787.373L704.196 709.399L690.044 720.574L727.51 839.214L619.92 775.95L605.769 787.125ZM402.935 891.327L521.429 882.958C519.251 868.367 512.702 856.871 501.784 848.472C490.879 840.251 477.617 836.692 461.997 837.795C453.2 838.416 445.235 840.507 438.102 844.068C430.983 847.808 424.959 852.909 420.029 859.371L408.33 847.789C414.05 839.833 421.52 833.551 430.74 828.944C439.781 824.349 449.956 821.652 461.267 820.854C475.809 819.826 488.964 821.954 500.732 827.237C512.333 832.711 521.685 840.682 528.788 851.15C535.89 861.617 539.959 873.738 540.992 887.511C542.026 901.284 539.99 913.835 534.885 925.165C529.599 936.507 521.979 945.587 512.022 952.404C501.886 959.234 490.265 963.112 477.159 964.037C464.052 964.963 452.065 962.753 441.195 957.407C430.325 952.06 421.519 944.141 414.775 933.648C408.045 923.334 404.156 911.201 403.109 897.249L402.935 891.327ZM475.93 947.671C489.575 946.707 500.736 941.513 509.414 932.089C517.926 922.856 522.287 911.22 522.496 897.179L422.046 904.273C424.35 918.137 430.492 929.032 440.472 936.958C450.287 945.076 462.106 948.647 475.93 947.671ZM210.393 893.558C215.595 906.123 226.655 916.219 243.574 923.845C253.758 928.436 264.149 931.252 274.748 932.296C285.274 933.502 295.074 932.81 304.151 930.219L302.125 913.681C294.568 915.974 286.421 916.724 277.686 915.931C268.877 915.301 260.366 913.136 252.153 909.433C240.162 904.028 232.372 896.979 228.783 888.286C225.121 879.756 225.796 869.938 230.808 858.832L234.345 850.993L275.493 869.541C292.904 877.389 307.145 879.779 318.216 876.711C329.122 873.569 337.044 866.527 341.982 855.584C347.068 844.315 346.887 833.326 341.441 822.616C335.995 811.906 326.045 803.293 311.59 796.778C301.077 792.039 291.195 789.845 281.944 790.195C272.529 790.472 264.339 793.07 257.375 797.989L266.441 777.9L249.686 770.348L213.646 850.212C206.202 866.707 205.117 881.156 210.393 893.558ZM274.325 804.45C283.379 803.224 292.833 804.832 302.689 809.275C313.037 813.94 320.128 819.691 323.96 826.529C327.72 833.53 327.904 840.787 324.514 848.3C317.586 863.652 303.034 866.33 280.859 856.334L240.205 838.009L249.712 816.94C256.994 810.003 265.199 805.839 274.325 804.45ZM102.612 789.232C92.4831 792.134 82.6755 791.88 73.189 788.472C63.5833 784.929 54.4257 778.238 45.7163 768.401L59.6713 756.156L62.5114 759.77C72.4138 770.954 83.607 776.696 96.0907 776.996C108.575 777.295 121.019 772.003 133.423 761.118L187.625 713.557L200.331 727.908L93.9498 821.256L81.7804 807.511L102.612 789.232ZM35.3527 453.916C39.6714 450.38 42.0953 445.846 42.6247 440.314C43.1541 434.782 41.6351 429.859 38.0679 425.543C34.3213 421.21 29.5804 418.761 23.8452 418.194C18.11 417.628 13.1726 419.122 9.03328 422.676C4.71459 426.212 2.29068 430.747 1.76132 436.278C1.23193 441.81 2.75089 446.734 6.31816 451.049C9.70622 455.346 14.2679 457.778 20.0031 458.345C25.9176 458.929 31.0342 457.453 35.3527 453.916Z"/>
</mask>
<path fill-rule="evenodd" clip-rule="evenodd" d="M896.766 524.709C905.697 530.337 912.046 537.811 915.81 547.13C919.554 556.628 920.635 567.871 919.054 580.861L900.556 578.557L901.376 574.053C903.173 559.285 900.023 547.151 891.925 537.653C883.827 528.156 871.557 522.383 855.114 520.335L783.264 511.389L785.57 492.439L926.588 509.998L924.38 528.147L896.766 524.709ZM814.276 306.688L850.532 419.535L856.272 418.008C869.645 413.792 880.569 407.241 889.043 398.355C897.689 389.415 903.334 379.068 905.977 367.314C908.62 355.559 907.937 343.441 903.926 330.959C899.916 318.478 893.376 308.112 884.305 299.862C875.29 291.783 864.619 286.485 852.293 283.969C840.021 281.624 827.285 282.532 814.083 286.694C800.881 290.857 790.012 297.578 781.476 306.86C772.941 316.142 767.375 327.029 764.78 339.521C762.412 352.131 763.452 365.361 767.902 379.21C771.363 389.982 776.407 399.219 783.036 406.92C789.719 414.793 797.623 420.587 806.747 424.301L815.281 410.312C807.803 407.021 801.395 402.356 796.057 396.319C790.89 390.228 786.961 382.993 784.269 374.615C779.49 359.74 779.821 346.078 785.262 333.629C790.875 321.126 800.546 312.146 814.276 306.688ZM865.09 307.05C876.347 313.292 884.064 322.91 888.239 335.905C892.468 349.071 891.784 361.338 886.184 372.706C880.811 384.192 871.63 392.641 858.641 398.054L827.906 302.39C841.664 299.371 854.058 300.924 865.09 307.05ZM722.937 176.211L677.453 175.36L649.595 204.543L635.675 191.356L773.48 46.9936L787.4 60.181L693.983 158.044L808.846 160.527L826.099 176.872L742.056 176.911L732.527 283.11L715.47 266.951L722.937 176.211ZM507.149 132.933C516.239 141.845 527.545 148.218 541.064 152.053C552.677 155.348 563.796 156.081 574.422 154.252C585.096 152.251 594.362 147.616 602.219 140.345L591.069 127.124C584.663 132.571 577.531 135.949 569.673 137.259C561.814 138.569 553.812 138.068 545.666 135.757C535.786 132.954 527.468 128.266 520.713 121.693C514.179 114.997 509.779 107.043 507.513 97.8324C505.468 88.4981 505.931 78.5712 508.902 68.0519C511.823 57.7049 516.595 49.0935 523.217 42.2177C530.012 35.391 537.918 30.9284 546.935 28.8299C556.174 26.608 565.734 26.8985 575.613 29.7012C583.76 32.0122 590.813 35.8755 596.772 41.2913C602.78 46.5347 607.087 53.1583 609.695 61.1622L626.104 55.759C623.214 45.4398 617.722 36.7108 609.629 29.572C601.757 22.3099 591.928 17.007 580.142 13.6634C566.623 9.82819 553.662 9.31791 541.26 12.1326C529.031 14.9965 518.399 20.8276 509.362 29.6261C500.325 38.4245 493.932 49.4629 490.182 62.7415C486.433 76.02 486.082 88.8657 489.129 101.278C492.225 113.519 498.232 124.07 507.149 132.933ZM335.594 3.21352C353.751 -0.468786 368.629 1.27569 380.226 8.44694C391.787 15.4425 399.415 27.8141 403.109 45.5621L420.995 131.49L403.014 135.137L398.515 113.523C395.784 121.585 390.696 128.478 383.252 134.199C375.984 139.886 366.709 143.873 355.427 146.161C339.914 149.307 326.807 148.119 316.104 142.598C305.401 137.077 298.787 128.254 296.264 116.129C293.813 104.355 296.069 94.0084 303.031 85.0878C310.169 76.1314 323.081 69.7584 341.767 65.9689L385.926 57.0134L384.17 48.5787C381.683 36.6297 376.45 28.2593 368.471 23.4675C360.455 18.5 350.013 17.3212 337.145 19.931C328.331 21.7186 320.18 24.9282 312.693 29.56C305.169 34.0161 299.029 39.3819 294.272 45.6577L282.903 33.4038C288.71 25.9992 296.221 19.7145 305.434 14.5494C314.611 9.20866 324.665 5.43004 335.594 3.21352ZM355.264 130.81C365.841 128.665 374.425 124.452 381.018 118.17C387.574 111.713 391.752 103.54 393.552 93.6514L388.834 70.9833L345.204 79.8315C321.405 84.6578 311.225 95.3299 314.664 111.848C316.346 119.931 320.766 125.719 327.924 129.212C335.044 132.53 344.158 133.062 355.264 130.81ZM79.7864 83.9274C97.5554 67.7428 115.376 59.3024 133.247 58.606C151.119 57.9096 166.874 64.984 180.513 79.829C194.152 94.6741 199.83 110.928 197.546 128.59C195.14 146.12 185.052 162.977 167.283 179.161L129.889 213.221L170.258 257.16L155.539 270.567L27.6731 131.394L79.7864 83.9274ZM155.012 166.601C168.803 154.039 176.605 141.455 178.418 128.848C180.11 116.108 175.902 104.237 165.794 93.2357C155.443 81.9693 143.881 76.6753 131.108 77.3536C118.213 77.8994 104.87 84.453 91.0792 97.0141L54.0827 130.712L118.016 200.298L155.012 166.601ZM605.769 787.125L652.251 931.316L665.98 920.474L626.033 798.292L736.738 864.598L749.622 854.424L710.097 731.908L820.169 798.715L834.531 787.373L704.196 709.399L690.044 720.574L727.51 839.214L619.92 775.95L605.769 787.125ZM402.935 891.327L521.429 882.958C519.251 868.367 512.702 856.871 501.784 848.472C490.879 840.251 477.617 836.692 461.997 837.795C453.2 838.416 445.235 840.507 438.102 844.068C430.983 847.808 424.959 852.909 420.029 859.371L408.33 847.789C414.05 839.833 421.52 833.551 430.74 828.944C439.781 824.349 449.956 821.652 461.267 820.854C475.809 819.826 488.964 821.954 500.732 827.237C512.333 832.711 521.685 840.682 528.788 851.15C535.89 861.617 539.959 873.738 540.992 887.511C542.026 901.284 539.99 913.835 534.885 925.165C529.599 936.507 521.979 945.587 512.022 952.404C501.886 959.234 490.265 963.112 477.159 964.037C464.052 964.963 452.065 962.753 441.195 957.407C430.325 952.06 421.519 944.141 414.775 933.648C408.045 923.334 404.156 911.201 403.109 897.249L402.935 891.327ZM475.93 947.671C489.575 946.707 500.736 941.513 509.414 932.089C517.926 922.856 522.287 911.22 522.496 897.179L422.046 904.273C424.35 918.137 430.492 929.032 440.472 936.958C450.287 945.076 462.106 948.647 475.93 947.671ZM210.393 893.558C215.595 906.123 226.655 916.219 243.574 923.845C253.758 928.436 264.149 931.252 274.748 932.296C285.274 933.502 295.074 932.81 304.151 930.219L302.125 913.681C294.568 915.974 286.421 916.724 277.686 915.931C268.877 915.301 260.366 913.136 252.153 909.433C240.162 904.028 232.372 896.979 228.783 888.286C225.121 879.756 225.796 869.938 230.808 858.832L234.345 850.993L275.493 869.541C292.904 877.389 307.145 879.779 318.216 876.711C329.122 873.569 337.044 866.527 341.982 855.584C347.068 844.315 346.887 833.326 341.441 822.616C335.995 811.906 326.045 803.293 311.59 796.778C301.077 792.039 291.195 789.845 281.944 790.195C272.529 790.472 264.339 793.07 257.375 797.989L266.441 777.9L249.686 770.348L213.646 850.212C206.202 866.707 205.117 881.156 210.393 893.558ZM274.325 804.45C283.379 803.224 292.833 804.832 302.689 809.275C313.037 813.94 320.128 819.691 323.96 826.529C327.72 833.53 327.904 840.787 324.514 848.3C317.586 863.652 303.034 866.33 280.859 856.334L240.205 838.009L249.712 816.94C256.994 810.003 265.199 805.839 274.325 804.45ZM102.612 789.232C92.4831 792.134 82.6755 791.88 73.189 788.472C63.5833 784.929 54.4257 778.238 45.7163 768.401L59.6713 756.156L62.5114 759.77C72.4138 770.954 83.607 776.696 96.0907 776.996C108.575 777.295 121.019 772.003 133.423 761.118L187.625 713.557L200.331 727.908L93.9498 821.256L81.7804 807.511L102.612 789.232ZM35.3527 453.916C39.6714 450.38 42.0953 445.846 42.6247 440.314C43.1541 434.782 41.6351 429.859 38.0679 425.543C34.3213 421.21 29.5804 418.761 23.8452 418.194C18.11 417.628 13.1726 419.122 9.03328 422.676C4.71459 426.212 2.29068 430.747 1.76132 436.278C1.23193 441.81 2.75089 446.734 6.31816 451.049C9.70622 455.346 14.2679 457.778 20.0031 458.345C25.9176 458.929 31.0342 457.453 35.3527 453.916Z" stroke="#035191" stroke-width="2" mask="url(#path-1-outside-1)"/>
</g>
</svg>
