<svg width="25" height="24" viewBox="0 0 25 24" fill="none" xmlns="http://www.w3.org/2000/svg">
<path d="M7.66456 5.3501C8.30356 5.3501 8.89456 5.4001 9.43456 5.5481C9.92457 5.63814 10.3923 5.82293 10.8116 6.0921C11.2056 6.3391 11.5006 6.6861 11.6966 7.1311C11.8936 7.5761 11.9916 8.1211 11.9916 8.7141C11.9916 9.4071 11.8446 10.0001 11.5006 10.4451C11.2056 10.8911 10.7136 11.2861 10.1236 11.5831C10.9596 11.8311 11.5986 12.2761 11.9916 12.8691C12.3856 13.4631 12.6316 14.2051 12.6316 15.0461C12.6316 15.7391 12.4836 16.3321 12.2376 16.8271C11.9916 17.3221 11.5986 17.7671 11.1556 18.0641C10.6743 18.3825 10.1424 18.6165 9.58256 18.7561C8.99256 18.9051 8.40256 19.0041 7.81256 19.0041H1.22156V5.3501H7.66456ZM7.27056 10.8901C7.81156 10.8901 8.25456 10.7421 8.59856 10.4951C8.94256 10.2481 9.09056 9.8021 9.09056 9.2581C9.09056 8.9611 9.04056 8.6641 8.94256 8.4671C8.84456 8.2691 8.69656 8.1201 8.50056 7.9721C8.30356 7.8731 8.10656 7.7741 7.86056 7.7251C7.61456 7.6751 7.36956 7.6751 7.07356 7.6751H4.22156V10.8911H7.27156L7.27056 10.8901ZM7.41856 16.7281C7.71356 16.7281 8.00856 16.6781 8.25456 16.6291C8.50293 16.5819 8.73784 16.4805 8.94256 16.3321C9.14294 16.1873 9.31058 16.002 9.43456 15.7881C9.53256 15.5411 9.63156 15.2441 9.63156 14.8981C9.63156 14.2051 9.43456 13.7101 9.04156 13.3641C8.64756 13.0671 8.10656 12.9191 7.46756 12.9191H4.22156V16.7291H7.41856V16.7281ZM16.9106 16.6781C17.3036 17.0741 17.8936 17.2721 18.6806 17.2721C19.2216 17.2721 19.7136 17.1241 20.1066 16.8771C20.5006 16.5801 20.7466 16.2831 20.8446 15.9861H23.2546C22.8606 17.1731 22.2706 18.0141 21.4846 18.5581C20.6966 19.0531 19.7626 19.3501 18.6316 19.3501C17.9079 19.3523 17.1904 19.2179 16.5166 18.9541C15.9103 18.7266 15.3696 18.3529 14.9426 17.8661C14.4859 17.4107 14.1483 16.8498 13.9596 16.2331C13.7136 15.5901 13.6146 14.8981 13.6146 14.1061C13.6146 13.3641 13.7136 12.6721 13.9596 12.0281C14.1961 11.4082 14.5461 10.8378 14.9916 10.3461C15.4346 9.9011 15.9756 9.5061 16.5656 9.2581C17.2223 8.99416 17.9238 8.85969 18.6316 8.8621C19.4676 8.8621 20.2056 9.0111 20.8446 9.3571C21.4846 9.7031 21.9756 10.0991 22.3696 10.6931C22.7715 11.2636 23.071 11.8998 23.2546 12.5731C23.3526 13.2651 23.4016 13.9581 23.3526 14.7491H16.2216C16.2216 15.5411 16.5166 16.2831 16.9106 16.6791V16.6781ZM20.0086 11.4841C19.6646 11.1381 19.1236 10.9401 18.4836 10.9401C18.0416 10.9401 17.6966 11.0391 17.4016 11.1871C17.1066 11.3361 16.9106 11.5341 16.7136 11.7321C16.5325 11.9234 16.4127 12.1643 16.3696 12.4241C16.3196 12.6721 16.2706 12.8691 16.2706 13.0671H20.6966C20.5986 12.3251 20.3526 11.8311 20.0086 11.4841ZM15.6806 6.2901H21.1886V7.6261H15.6816V6.2901H15.6806Z" fill="#141315"/>
</svg>
