<svg width="25" height="24" viewBox="0 0 25 24" fill="none" xmlns="http://www.w3.org/2000/svg">
<path d="M12.1129 9.00024C11.3173 9.00024 10.5542 9.31631 9.99159 9.87892C9.42898 10.4415 9.11291 11.2046 9.11291 12.0002C9.11291 12.7959 9.42898 13.559 9.99159 14.1216C10.5542 14.6842 11.3173 15.0002 12.1129 15.0002C12.9086 15.0002 13.6716 14.6842 14.2342 14.1216C14.7968 13.559 15.1129 12.7959 15.1129 12.0002C15.1129 11.2046 14.7968 10.4415 14.2342 9.87892C13.6716 9.31631 12.9086 9.00024 12.1129 9.00024ZM12.1129 7.00024C13.439 7.00024 14.7108 7.52703 15.6484 8.46471C16.5861 9.40239 17.1129 10.6742 17.1129 12.0002C17.1129 13.3263 16.5861 14.5981 15.6484 15.5358C14.7108 16.4735 13.439 17.0002 12.1129 17.0002C10.7868 17.0002 9.51506 16.4735 8.57738 15.5358C7.6397 14.5981 7.11291 13.3263 7.11291 12.0002C7.11291 10.6742 7.6397 9.40239 8.57738 8.46471C9.51506 7.52703 10.7868 7.00024 12.1129 7.00024ZM18.6129 6.75024C18.6129 7.08176 18.4812 7.39971 18.2468 7.63413C18.0124 7.86855 17.6944 8.00024 17.3629 8.00024C17.0314 8.00024 16.7134 7.86855 16.479 7.63413C16.2446 7.39971 16.1129 7.08176 16.1129 6.75024C16.1129 6.41872 16.2446 6.10078 16.479 5.86636C16.7134 5.63194 17.0314 5.50024 17.3629 5.50024C17.6944 5.50024 18.0124 5.63194 18.2468 5.86636C18.4812 6.10078 18.6129 6.41872 18.6129 6.75024ZM12.1129 4.00024C9.63891 4.00024 9.23491 4.00724 8.08391 4.05824C7.29991 4.09524 6.77391 4.20024 6.28591 4.39024C5.85191 4.55824 5.53891 4.75924 5.20591 5.09324C4.89292 5.39564 4.65227 5.76483 4.50191 6.17324C4.31191 6.66324 4.20691 7.18824 4.17091 7.97124C4.11891 9.07524 4.11291 9.46124 4.11291 12.0002C4.11291 14.4742 4.11991 14.8782 4.17091 16.0292C4.20791 16.8122 4.31291 17.3392 4.50191 17.8262C4.67191 18.2612 4.87191 18.5742 5.20391 18.9062C5.54091 19.2422 5.85391 19.4432 6.28391 19.6092C6.77791 19.8002 7.30391 19.9062 8.08391 19.9422C9.18791 19.9942 9.57391 20.0002 12.1129 20.0002C14.5869 20.0002 14.9909 19.9932 16.1419 19.9422C16.9239 19.9052 17.4509 19.8002 17.9389 19.6112C18.3719 19.4422 18.6869 19.2412 19.0189 18.9092C19.3559 18.5722 19.5569 18.2592 19.7229 17.8292C19.9129 17.3362 20.0189 16.8092 20.0549 16.0292C20.1069 14.9252 20.1129 14.5392 20.1129 12.0002C20.1129 9.52624 20.1059 9.12224 20.0549 7.97124C20.0179 7.18924 19.9129 6.66124 19.7229 6.17324C19.5722 5.76525 19.332 5.3962 19.0199 5.09324C18.7176 4.78009 18.3484 4.53941 17.9399 4.38924C17.4499 4.19924 16.9239 4.09424 16.1419 4.05824C15.0379 4.00624 14.6519 4.00024 12.1129 4.00024ZM12.1129 2.00024C14.8299 2.00024 15.1689 2.01024 16.2349 2.06024C17.2999 2.11024 18.0249 2.27724 18.6629 2.52524C19.3229 2.77924 19.8789 3.12324 20.4349 3.67824C20.9434 4.17814 21.3369 4.78283 21.5879 5.45024C21.8349 6.08724 22.0029 6.81324 22.0529 7.87824C22.0999 8.94424 22.1129 9.28324 22.1129 12.0002C22.1129 14.7172 22.1029 15.0562 22.0529 16.1222C22.0029 17.1872 21.8349 17.9122 21.5879 18.5502C21.3376 19.218 20.944 19.8229 20.4349 20.3222C19.9349 20.8306 19.3302 21.224 18.6629 21.4752C18.0259 21.7222 17.2999 21.8902 16.2349 21.9402C15.1689 21.9872 14.8299 22.0002 12.1129 22.0002C9.39591 22.0002 9.05691 21.9902 7.99091 21.9402C6.92591 21.8902 6.20091 21.7222 5.56291 21.4752C4.89524 21.2247 4.29044 20.8312 3.79091 20.3222C3.28232 19.8224 2.88885 19.2177 2.63792 18.5502C2.38992 17.9132 2.22291 17.1872 2.17291 16.1222C2.12591 15.0562 2.11292 14.7172 2.11292 12.0002C2.11292 9.28324 2.12291 8.94424 2.17291 7.87824C2.22291 6.81224 2.38992 6.08824 2.63792 5.45024C2.88815 4.78242 3.28172 4.17756 3.79091 3.67824C4.29059 3.16948 4.89534 2.77597 5.56291 2.52524C6.20091 2.27724 6.92491 2.11024 7.99091 2.06024C9.05691 2.01324 9.39591 2.00024 12.1129 2.00024Z" fill="#141315"/>
</svg>
