<svg width="20" height="34" viewBox="0 0 20 34" fill="none" xmlns="http://www.w3.org/2000/svg">
<path d="M19.6768 12.0923C19.6782 11.5419 19.2318 11.0955 18.6801 11.0955C18.602 11.0955 18.5267 11.1024 18.4569 11.1216C17.4341 11.3543 16.5195 11.8705 15.8035 12.5852C14.8136 13.5751 14.2015 14.9429 14.2015 16.4531L14.2029 17.8236L4.9912 8.61189C3.92599 7.54669 2.18305 7.54669 1.11922 8.61189C0.054011 9.6771 0.054011 11.42 1.11922 12.4839L5.37867 16.7433C4.59141 16.6626 3.77676 16.9131 3.17296 17.5155C2.75399 17.9345 2.50481 18.4589 2.41581 19.0024L0.65918 25.5854C0.418207 26.4959 0.650965 27.5049 1.36293 28.2183L4.54759 31.4029C8.0102 34.8655 13.621 34.8655 17.0836 31.4029C18.7608 29.7257 19.6179 27.5446 19.6686 25.3485L19.6782 25.3567V25.1418C19.6782 25.1377 19.6782 25.1335 19.6782 25.1322L19.6768 12.0923ZM18.2981 25.3156C18.2515 27.2544 17.4752 29.0726 16.1129 30.4336C13.1897 33.3567 8.43601 33.3567 5.51422 30.4336L2.32955 27.2489C1.98863 26.908 1.8613 26.4178 1.98726 25.9372L3.76443 19.2256C3.79729 19.0257 3.88903 18.7341 4.13821 18.4835C4.52569 18.0961 4.99257 18.0796 5.23765 18.1043L7.15037 18.2973C7.43789 18.3261 7.71309 18.1714 7.83768 17.9099C7.96228 17.6483 7.90751 17.3375 7.70351 17.1322L2.08584 11.5145C1.55187 10.9805 1.55187 10.1111 2.08584 9.57852C2.61982 9.04455 3.48923 9.04455 4.02184 9.57852L13.7004 19.2571C14.1125 19.6692 14.7163 19.7555 15.2175 19.5309C15.4324 19.4337 15.5707 19.2201 15.5707 18.9846V16.4544C15.5707 15.3591 15.9979 14.3295 16.7715 13.5546C17.2082 13.1178 17.7312 12.7878 18.3063 12.5838L18.2981 25.3156Z" fill="black"/>
<path d="M16.9415 3.44617H9.97799L12.4562 0.967996L11.4882 0L7.35742 4.13075L11.4827 8.2574L12.4507 7.28941L9.97799 4.81533H16.9415V3.44617Z" fill="black"/>
</svg>
