<svg width="24" height="24" viewBox="0 0 24 24" fill="none" xmlns="http://www.w3.org/2000/svg">
<path d="M7.25437 18.4942L7.97837 18.9172C9.19931 19.6293 10.588 20.0031 12.0014 20.0002C13.5836 20.0002 15.1303 19.5311 16.4459 18.652C17.7615 17.7729 18.7869 16.5235 19.3924 15.0617C19.9979 13.5999 20.1563 11.9914 19.8477 10.4395C19.539 8.88767 18.777 7.46221 17.6582 6.34339C16.5394 5.22457 15.1139 4.46264 13.5621 4.15396C12.0102 3.84528 10.4017 4.00371 8.9399 4.60921C7.4781 5.21471 6.22867 6.24009 5.34961 7.55568C4.47056 8.87128 4.00137 10.418 4.00137 12.0002C4.00137 13.4362 4.37837 14.8132 5.08537 16.0242L5.50737 16.7482L4.85437 19.1492L7.25437 18.4942ZM2.00537 22.0002L3.35737 17.0322C2.46651 15.5051 1.99847 13.7682 2.00137 12.0002C2.00137 6.47724 6.47837 2.00024 12.0014 2.00024C17.5244 2.00024 22.0014 6.47724 22.0014 12.0002C22.0014 17.5232 17.5244 22.0002 12.0014 22.0002C10.2341 22.0031 8.49803 21.5354 6.97137 20.6452L2.00537 22.0002ZM8.39237 7.30824C8.52637 7.29824 8.66137 7.29824 8.79537 7.30424C8.84937 7.30824 8.90337 7.31424 8.95737 7.32024C9.11637 7.33824 9.29137 7.43524 9.35037 7.56924C9.64837 8.24524 9.93837 8.92624 10.2184 9.60924C10.2804 9.76124 10.2434 9.95624 10.1254 10.1462C10.0442 10.2747 9.95643 10.3989 9.86237 10.5182C9.74937 10.6632 9.50637 10.9292 9.50637 10.9292C9.50637 10.9292 9.40737 11.0472 9.44537 11.1942C9.45937 11.2502 9.50537 11.3312 9.54737 11.3992L9.60637 11.4942C9.86237 11.9212 10.2064 12.3542 10.6264 12.7622C10.7464 12.8782 10.8634 12.9972 10.9894 13.1082C11.4574 13.5212 11.9874 13.8582 12.5594 14.1082L12.5644 14.1102C12.6494 14.1472 12.6924 14.1672 12.8164 14.2202C12.8784 14.2462 12.9424 14.2692 13.0074 14.2862C13.0745 14.3034 13.1453 14.3001 13.2106 14.277C13.276 14.2538 13.3329 14.2118 13.3744 14.1562C14.0984 13.2792 14.1644 13.2222 14.1704 13.2222V13.2242C14.2207 13.1773 14.2804 13.1417 14.3456 13.1198C14.4108 13.0979 14.48 13.0902 14.5484 13.0972C14.6084 13.1012 14.6694 13.1122 14.7254 13.1372C15.2564 13.3802 16.1254 13.7592 16.1254 13.7592L16.7074 14.0202C16.8054 14.0672 16.8944 14.1782 16.8974 14.2852C16.9014 14.3522 16.9074 14.4602 16.8844 14.6582C16.8524 14.9172 16.7744 15.2282 16.6964 15.3912C16.643 15.5025 16.5721 15.6044 16.4864 15.6932C16.3855 15.7992 16.275 15.8956 16.1564 15.9812C16.1153 16.0121 16.0737 16.0421 16.0314 16.0712C15.907 16.1502 15.7792 16.2236 15.6484 16.2912C15.3909 16.428 15.1065 16.5065 14.8154 16.5212C14.6304 16.5312 14.4454 16.5452 14.2594 16.5352C14.2514 16.5352 13.6914 16.4482 13.6914 16.4482C12.2696 16.0743 10.9548 15.3737 9.85137 14.4022C9.62537 14.2032 9.41637 13.9892 9.20237 13.7762C8.31237 12.8912 7.64037 11.9362 7.23237 11.0342C7.02354 10.5915 6.91074 10.1096 6.90137 9.62024C6.89725 9.0131 7.09572 8.42191 7.46537 7.94024C7.53837 7.84624 7.60737 7.74824 7.72637 7.63524C7.85337 7.51524 7.93337 7.45124 8.02037 7.40724C8.13605 7.34928 8.26223 7.31526 8.39137 7.30724L8.39237 7.30824Z" fill="#F7F7F7"/>
</svg>
