<svg width="945" height="951" fill="none" xmlns="http://www.w3.org/2000/svg"><path opacity=".2" clip-rule="evenodd" d="M247.662 192.092c30.409-55.709 96.117-96.91 159.709-97.475 63.937-.57 109.562 60.183 163.649 94.598 40.195 25.575 78.904 49.887 114.034 82.089 37.618 34.48 75.643 67.954 99.084 113.259 27.724 53.581 54.715 111.351 48.072 171.146-7.043 63.394-33.334 130.859-85.65 167.106-51.807 35.894-123.847 5.2-185.074 20.464-62.589 15.605-119.29 99.395-176.848 69.768-62.45-32.144-26.51-138.756-67.74-195.664-33.337-46.013-125.378-36.753-140.318-91.508-14.762-54.103 63.716-91.814 75.368-146.529 13.213-62.046-34.643-131.641-4.286-187.254z" stroke="#035191" stroke-width="1.5" stroke-dasharray="10 10"/></svg>