<svg width="1920" height="888" fill="none" xmlns="http://www.w3.org/2000/svg"><path opacity=".2" clip-rule="evenodd" d="M484.387 56.593c92.472-117.148-80.156-318.55 6.499-440.066C573.626-499.5 748.107-512.492 890.565-512.99c131.745-.461 250.785 65.169 367.205 126.836 103.66 54.91 173.17 150.91 273.11 212.334 154.84 95.164 442.38 68.84 475.31 247.634 32.88 178.571-285.64 232.554-356.06 399.937-64.31 152.867 64.78 344.897-17.8 488.714-85.56 148.995-257.8 231.625-422.95 278.845-173.46 49.59-402.048 119.38-531.904-5.83-148.79-143.47 56.666-464.801-98.178-601.707-198.454-175.464-721.372 100.54-764.366-160.918-43.379-263.801 503.802-206.405 669.455-416.262z" stroke="#035191" stroke-width="1.5" stroke-dasharray="10 10"/></svg>