<svg width="25" height="24" fill="none" xmlns="http://www.w3.org/2000/svg"><path d="M12.113 9a3 3 0 100 6 3 3 0 000-6zm0-2a5 5 0 110 10 5 5 0 010-10zm6.5-.25a1.25 1.25 0 11-2.5 0 1.25 1.25 0 012.5 0zM12.113 4c-2.474 0-2.878.007-4.03.058-.783.037-1.31.142-1.797.332a2.886 2.886 0 00-1.08.703 2.89 2.89 0 00-.704 1.08c-.19.49-.295 1.015-.331 1.798-.052 1.104-.058 1.49-.058 4.03 0 2.473.007 2.877.058 4.028.037.783.142 1.31.33 1.797.17.435.37.748.703 1.08.337.336.65.537 1.08.703.494.191 1.02.297 1.8.333 1.104.052 1.49.058 4.029.058 2.474 0 2.878-.007 4.029-.058.782-.037 1.309-.142 1.797-.33a2.92 2.92 0 001.08-.703c.337-.337.538-.65.704-1.08.19-.493.296-1.02.332-1.8.052-1.104.058-1.49.058-4.029 0-2.474-.007-2.878-.058-4.029-.037-.782-.142-1.31-.332-1.798a2.912 2.912 0 00-.703-1.08 2.884 2.884 0 00-1.08-.704c-.49-.19-1.016-.295-1.798-.33-1.104-.053-1.49-.059-4.03-.059zm0-2c2.717 0 3.056.01 4.122.06 1.065.05 1.79.217 2.428.465.66.254 1.216.598 1.772 1.153.508.5.902 1.105 1.153 1.772.247.637.415 1.363.465 2.428.047 1.066.06 1.405.06 4.122 0 2.717-.01 3.056-.06 4.122-.05 1.065-.218 1.79-.465 2.428a4.883 4.883 0 01-1.153 1.772c-.5.509-1.105.902-1.772 1.153-.637.247-1.363.415-2.428.465-1.066.047-1.405.06-4.122.06-2.717 0-3.056-.01-4.122-.06-1.065-.05-1.79-.218-2.428-.465a4.889 4.889 0 01-1.772-1.153 4.904 4.904 0 01-1.153-1.772c-.248-.637-.415-1.363-.465-2.428-.047-1.066-.06-1.405-.06-4.122 0-2.717.01-3.056.06-4.122.05-1.066.217-1.79.465-2.428A4.88 4.88 0 013.79 3.678a4.897 4.897 0 011.772-1.153C6.2 2.277 6.925 2.11 7.99 2.06 9.057 2.013 9.396 2 12.113 2z" fill="#F7F7F7"/></svg>