<svg width="20" height="34" fill="none" xmlns="http://www.w3.org/2000/svg"><path d="M19.677 12.092a.995.995 0 00-1.22-.97 5.474 5.474 0 00-2.654 1.463 5.453 5.453 0 00-1.602 3.868l.002 1.37-9.213-9.21a2.745 2.745 0 00-3.872 0 2.745 2.745 0 000 3.872l4.26 4.26a2.713 2.713 0 00-2.206.771 2.712 2.712 0 00-.757 1.487L.659 25.585a2.73 2.73 0 00.704 2.633l3.185 3.185a8.863 8.863 0 0012.536 0 8.816 8.816 0 002.585-6.054l.01.008v-.225l-.002-13.04zm-1.379 13.224a7.454 7.454 0 01-2.185 5.118c-2.923 2.923-7.677 2.923-10.599 0L2.33 27.249a1.349 1.349 0 01-.343-1.312l1.777-6.711c.033-.2.125-.492.374-.742a1.342 1.342 0 011.1-.38l1.912.193a.686.686 0 00.554-1.165l-5.618-5.618A1.37 1.37 0 014.022 9.58l9.678 9.678a1.353 1.353 0 001.518.274.6.6 0 00.353-.546v-2.53a4.111 4.111 0 012.736-3.87l-.009 12.73zm-1.356-21.87H9.978L12.456.968 11.488 0l-4.13 4.13 4.125 4.127.968-.968-2.473-2.474h6.964V3.446z" fill="#000"/></svg>