<svg width="24" height="24" fill="none" xmlns="http://www.w3.org/2000/svg"><path d="M7.254 18.494l.724.423A7.953 7.953 0 0012.001 20a8 8 0 10-8-8 7.95 7.95 0 001.084 4.024l.422.724-.653 2.401 2.4-.655zM2.005 22l1.352-4.968A9.954 9.954 0 012.001 12c0-5.523 4.477-10 10-10s10 4.477 10 10-4.477 10-10 10a9.953 9.953 0 01-5.03-1.355L2.005 22zM8.392 7.308c.134-.01.27-.01.403-.004.054.004.108.01.162.016.16.018.334.115.393.25.298.675.588 1.356.868 2.04.062.151.025.346-.093.536a4.379 4.379 0 01-.263.372c-.113.145-.356.411-.356.411s-.099.118-.06.265c.013.056.06.137.101.205l.06.095c.255.427.6.86 1.02 1.268.12.116.236.235.362.346.468.413.998.75 1.57 1l.005.002c.085.037.128.057.252.11.062.026.126.05.191.066a.35.35 0 00.367-.13c.724-.877.79-.934.796-.934v.002a.482.482 0 01.378-.127c.06.004.121.015.177.04.531.243 1.4.622 1.4.622l.582.261c.098.047.187.158.19.265.004.067.01.175-.013.373-.032.26-.11.57-.188.733a1.153 1.153 0 01-.21.302c-.1.106-.211.203-.33.288-.04.031-.082.061-.125.09a4.977 4.977 0 01-.383.22 1.99 1.99 0 01-.833.23c-.185.01-.37.024-.556.014-.008 0-.568-.087-.568-.087a9.447 9.447 0 01-3.84-2.046c-.226-.199-.435-.413-.649-.626-.89-.885-1.562-1.84-1.97-2.742a3.47 3.47 0 01-.33-1.414 2.73 2.73 0 01.563-1.68c.073-.094.142-.192.261-.305.127-.12.207-.184.294-.228a.961.961 0 01.371-.1l.001.001z" fill="#F7F7F7"/></svg>