<svg width="68" height="62" fill="none" xmlns="http://www.w3.org/2000/svg"><path d="M60.803 11.843c0 13.459 6.971 22.7 6.971 29.186 0 6.485-3.728 20.105-33.561 20.105S0 42.81 0 35.678c0-33.402 60.803-47.67 60.803-23.835z" fill="#F6F6F6"/><path d="M51.886 50.024H15.891c-2.952 0-5.35-2.4-5.35-5.35V22.297a5.355 5.355 0 015.35-5.35h35.995a5.355 5.355 0 015.35 5.35v22.375a5.355 5.355 0 01-5.35 5.35zM15.891 19.866a2.436 2.436 0 00-2.432 2.432v22.375a2.436 2.436 0 002.432 2.432h35.995a2.436 2.436 0 002.432-2.432V22.298a2.436 2.436 0 00-2.432-2.432H15.891z" fill="#141315"/><path d="M41.67 18.406h-2.918v-3.891a.487.487 0 00-.486-.487H29.51a.487.487 0 00-.486.487v3.891h-2.919v-3.891a3.409 3.409 0 013.405-3.405h8.756a3.409 3.409 0 013.405 3.405v3.891zm-3.404 10.215h17.511v2.919h-17.51v-2.92z" fill="#141315"/><path d="M36.32 36.404h-4.864a3.409 3.409 0 01-3.404-3.405v-4.864a3.409 3.409 0 013.404-3.405h4.865a3.409 3.409 0 013.405 3.405v4.864a3.409 3.409 0 01-3.405 3.405zm-4.864-8.756a.487.487 0 00-.486.487v4.864c0 .268.218.486.486.486h4.865a.487.487 0 00.486-.486v-4.864a.487.487 0 00-.486-.487h-4.864z" fill="#2A7BBD"/></svg>