<svg width="61" height="68" fill="none" xmlns="http://www.w3.org/2000/svg"><path d="M48.801 6.426C35.347 6.677 25.974-.12 19.491.002 13.008.124-.542 4.105.017 33.934c.558 29.83 18.959 33.863 26.091 33.731C59.502 67.04 72.632 5.981 48.802 6.426z" fill="#F6F6F6"/><path d="M15.542 5.79l2.752-2.752 1.375 1.376-2.751 2.751-1.376-1.376zM7.633 13.7l2.752-2.752 1.376 1.376-2.752 2.751L7.633 13.7zm.004-9.628l1.375-1.375 2.752 2.751-1.376 1.376-2.751-2.752zm44.73 11.278a2.922 2.922 0 01-2.918-2.92 2.923 2.923 0 012.918-2.918c1.61 0 2.919 1.31 2.919 2.919s-1.31 2.918-2.919 2.918zm0-3.892a.974.974 0 00-.973.973c0 .535.436.973.973.973a.975.975 0 00.973-.973.975.975 0 00-.973-.973z" fill="#2A7BBD"/><path d="M32.224 14.063l3.831-1.741a4.217 4.217 0 015.693 2.358l1.479 3.94a4.218 4.218 0 002.467 2.467l3.94 1.479a4.217 4.217 0 012.358 5.693l-1.741 3.831a4.214 4.214 0 000 3.489l1.741 3.83a4.217 4.217 0 01-2.358 5.694l-3.94 1.479a4.218 4.218 0 00-2.467 2.467l-1.479 3.94a4.217 4.217 0 01-5.693 2.358l-3.83-1.741a4.214 4.214 0 00-3.49 0l-3.83 1.741a4.217 4.217 0 01-5.694-2.358l-1.478-3.94a4.218 4.218 0 00-2.468-2.467l-3.94-1.48a4.217 4.217 0 01-2.358-5.692l1.742-3.831a4.214 4.214 0 000-3.489l-1.742-3.83a4.217 4.217 0 012.358-5.693l3.94-1.479a4.218 4.218 0 002.468-2.467l1.478-3.94a4.217 4.217 0 015.693-2.358l3.831 1.741a4.215 4.215 0 003.49 0z" fill="#F6F6F6"/><path d="M20.433 42.103L18.318 29.78l6.874 3.348 5.286-9.51 5.287 9.51 6.874-3.348-2.115 12.322H20.433z" fill="#F6F6F6"/><path d="M18.318 29.78l2.115 12.323h3.891l-1.76-10.254-4.246-2.069zm14.306-15.717c1.11.504 2.38.504 3.489 0l3.6-1.636c-1.104-.564-2.437-.662-3.66-.105l-3.63 1.65.201.091z" fill="#F6F6F6"/><path d="M23.103 52.985l-1.48-3.94a4.218 4.218 0 00-2.466-2.467l-3.94-1.479a4.217 4.217 0 01-2.358-5.693l1.739-3.831a4.214 4.214 0 000-3.489l-1.74-3.83a4.217 4.217 0 012.359-5.694l3.94-1.479a4.218 4.218 0 002.467-2.467l1.479-3.94a4.177 4.177 0 012.033-2.253l-.232-.105a4.217 4.217 0 00-5.693 2.358l-1.478 3.94a4.218 4.218 0 01-2.468 2.467l-3.94 1.479a4.217 4.217 0 00-2.358 5.693l1.74 3.831a4.214 4.214 0 010 3.489l-1.74 3.83a4.217 4.217 0 002.358 5.694l3.94 1.479a4.218 4.218 0 012.468 2.467l1.478 3.94a4.217 4.217 0 005.693 2.358l.232-.105a4.177 4.177 0 01-2.033-2.253zm13.012.619a4.214 4.214 0 00-3.489 0l-.202.091 3.629 1.648c1.223.557 2.558.46 3.66-.105l-3.598-1.634z" fill="#F6F6F6"/><path d="M23.159 57.178a5.663 5.663 0 01-5.314-3.681l-1.479-3.938a2.755 2.755 0 00-1.612-1.613l-3.94-1.48a5.694 5.694 0 01-3.25-3.14 5.691 5.691 0 01.078-4.521l1.741-3.831a2.76 2.76 0 000-2.28l-1.741-3.832a5.7 5.7 0 01-.078-4.522 5.691 5.691 0 013.251-3.14l3.939-1.479a2.759 2.759 0 001.614-1.613l1.48-3.938a5.7 5.7 0 013.141-3.251 5.687 5.687 0 014.52.078l3.83 1.74c.723.328 1.554.33 2.28 0h.002l3.83-1.74a5.695 5.695 0 014.52-.078 5.694 5.694 0 013.143 3.251l1.479 3.938c.28.745.867 1.335 1.613 1.613l3.94 1.479a5.694 5.694 0 013.249 3.14 5.691 5.691 0 01-.078 4.522l-1.741 3.831a2.76 2.76 0 000 2.28l1.741 3.832a5.7 5.7 0 01.078 4.521 5.691 5.691 0 01-3.251 3.14l-3.938 1.48a2.759 2.759 0 00-1.615 1.613l-1.48 3.938a5.7 5.7 0 01-3.141 3.25 5.687 5.687 0 01-4.52-.077l-3.83-1.741a2.778 2.778 0 00-2.282 0l-3.83 1.741a5.672 5.672 0 01-2.35.508zm0-43.774c-.356 0-.714.07-1.055.21a2.732 2.732 0 00-1.527 1.58l-1.479 3.938a5.672 5.672 0 01-3.321 3.32l-3.938 1.478a2.735 2.735 0 00-1.58 1.525 2.732 2.732 0 00.037 2.197l1.741 3.831a5.67 5.67 0 010 4.697l-1.741 3.831a2.732 2.732 0 00-.037 2.197 2.73 2.73 0 001.58 1.525l3.94 1.479a5.677 5.677 0 013.321 3.32l1.479 3.937a2.732 2.732 0 001.527 1.58c.714.292 1.493.28 2.195-.039l3.831-1.741a5.65 5.65 0 014.695 0l3.831 1.741a2.755 2.755 0 003.724-1.54l1.479-3.939a5.672 5.672 0 013.321-3.32l3.938-1.478a2.735 2.735 0 001.58-1.525 2.732 2.732 0 00-.037-2.197l-1.741-3.831a5.669 5.669 0 010-4.697l1.741-3.831a2.732 2.732 0 00.037-2.197 2.73 2.73 0 00-1.58-1.525l-3.94-1.479a5.677 5.677 0 01-3.321-3.32l-1.479-3.937a2.732 2.732 0 00-1.527-1.58 2.735 2.735 0 00-2.195.039l-3.831 1.74a5.64 5.64 0 01-4.697 0l-3.829-1.74a2.766 2.766 0 00-1.142-.25z" fill="#141315"/><path d="M40.524 43.562H20.433a1.46 1.46 0 01-1.438-1.212L16.88 30.028a1.463 1.463 0 01.562-1.415 1.456 1.456 0 011.516-.144l5.63 2.742 4.616-8.303c.514-.928 2.035-.928 2.55 0l1.946 3.5-2.552 1.419-.67-1.204-4.012 7.214a1.454 1.454 0 01-1.914.603l-4.314-2.1 1.425 8.305h17.631l1.425-8.306-4.314 2.101c-.7.345-1.539.076-1.915-.603l-2.05-3.689 2.553-1.418 1.377 2.479L42 28.467a1.457 1.457 0 011.517.144c.437.329.653.874.562 1.415l-2.115 12.322a1.463 1.463 0 01-1.44 1.214z" fill="#2A7BBD"/></svg>