<svg width="68" height="62" fill="none" xmlns="http://www.w3.org/2000/svg"><path d="M60.803 49.29c0-13.458 6.971-22.7 6.971-29.185C67.774 13.62 64.046 0 34.213 0S0 18.323 0 25.456C0 58.857 60.803 73.124 60.803 49.29z" fill="#F6F6F6"/><path d="M18.265 5.897l2.752-2.751 1.375 1.375-2.751 2.752-1.376-1.376zm-7.911 7.91l2.752-2.752 1.376 1.376-2.752 2.752-1.376-1.376zM10.7 4.52l1.376-1.375 2.751 2.751-1.376 1.376L10.7 4.521z" fill="#2A7BBD"/><path d="M49.454 36.89a2.432 2.432 0 100-4.864 2.432 2.432 0 000 4.864zm-31.131 0a2.432 2.432 0 100-4.864 2.432 2.432 0 000 4.864zm15.565.973a4.378 4.378 0 100-8.755 4.378 4.378 0 000 8.755zM43.13 51.97v-4.378a3.89 3.89 0 00-3.89-3.892H28.538a3.89 3.89 0 00-3.892 3.892v4.377H43.13z" fill="#F6F6F6"/><path d="M55.777 48.078v-2.432a3.89 3.89 0 00-3.891-3.891h-4.864a3.89 3.89 0 00-3.892 3.891v2.432h12.647zm-31.131 0v-2.432a3.89 3.89 0 00-3.891-3.891H15.89a3.89 3.89 0 00-3.892 3.891v2.432h12.647zm2.497-24.808l-1.524-8.107 4.462 1.98 3.807-6.52 3.808 6.52 4.462-1.98-1.524 8.107H27.143zM51.4 34.458c0-.37.095-.71.243-1.023a2.423 2.423 0 00-2.19-1.409 2.433 2.433 0 000 4.864c.974 0 1.8-.581 2.19-1.408a2.379 2.379 0 01-.243-1.024zm-31.131 0c0-.37.095-.71.243-1.023a2.423 2.423 0 00-2.19-1.409 2.433 2.433 0 000 4.864c.974 0 1.8-.581 2.19-1.408a2.379 2.379 0 01-.243-1.024zm13.619-.973c0-1.616.886-3.011 2.19-3.77a4.337 4.337 0 00-2.19-.607 4.377 4.377 0 00-4.377 4.377 4.377 4.377 0 004.377 4.378c.802 0 1.543-.231 2.19-.607-1.304-.759-2.19-2.154-2.19-3.77z" fill="#F6F6F6"/><path d="M32.916 43.7h-4.378a3.89 3.89 0 00-3.892 3.892v4.377h4.378v-4.377a3.89 3.89 0 013.892-3.892zM51.4 41.755h-4.378a3.89 3.89 0 00-3.892 3.89v2.433h4.378v-2.432a3.89 3.89 0 013.892-3.892zm-31.132 0h-4.377a3.89 3.89 0 00-3.892 3.89v2.433h4.378v-2.432a3.89 3.89 0 013.892-3.892zm9.814-24.612l-4.463-1.98 1.524 8.107h4.377l-1.22-6.498-.216.372z" fill="#F6F6F6"/><path d="M49.454 38.35a3.895 3.895 0 01-3.891-3.892 3.895 3.895 0 013.891-3.891 3.895 3.895 0 013.891 3.891 3.895 3.895 0 01-3.89 3.892zm0-4.865a.973.973 0 100 1.947.973.973 0 000-1.947zm7.783 14.593h-2.919v-2.432a2.436 2.436 0 00-2.432-2.432h-6.323v-2.919h6.323a5.355 5.355 0 015.35 5.35v2.433zM18.323 38.35a3.895 3.895 0 01-3.891-3.892 3.895 3.895 0 013.891-3.891 3.895 3.895 0 013.892 3.891 3.895 3.895 0 01-3.892 3.892zm0-4.865a.973.973 0 100 1.947.973.973 0 000-1.947zm-4.864 14.593H10.54v-2.432a5.355 5.355 0 015.35-5.35h6.324v2.918h-6.323a2.436 2.436 0 00-2.432 2.432v2.432zm20.43-8.756a5.844 5.844 0 01-5.838-5.837 5.844 5.844 0 015.838-5.837 5.844 5.844 0 015.837 5.837 5.844 5.844 0 01-5.837 5.837zm0-8.755a2.922 2.922 0 00-2.919 2.918c0 1.61 1.31 2.919 2.919 2.919s2.918-1.31 2.918-2.919-1.31-2.918-2.919-2.918zM44.59 51.97h-2.92v-4.378a2.436 2.436 0 00-2.432-2.432h-10.7a2.435 2.435 0 00-2.432 2.432v4.377h-2.919v-4.377c0-2.952 2.4-5.351 5.351-5.351h10.701c2.952 0 5.35 2.4 5.35 5.35v4.378z" fill="#141315"/><path d="M40.634 24.73H27.141a1.46 1.46 0 01-1.434-1.19l-1.524-8.107a1.46 1.46 0 012.028-1.603l3.269 1.451 3.148-5.391c.525-.897 1.996-.897 2.521 0l3.148 5.391 3.27-1.451a1.461 1.461 0 012.027 1.603l-1.524 8.108a1.462 1.462 0 01-1.436 1.189zm-12.28-2.919h11.07l.786-4.187-1.924.854c-.683.3-1.477.045-1.852-.6l-2.545-4.36-2.547 4.363a1.462 1.462 0 01-1.853.6l-1.924-.855.788 4.185z" fill="#2A7BBD"/><path d="M2.757 49.05H65.02v2.92H2.757v-2.92z" fill="#141315"/></svg>