<svg width="62" height="68" fill="none" xmlns="http://www.w3.org/2000/svg"><path d="M11.843 6.971C25.302 6.971 34.543 0 41.03 0c6.485 0 20.105 3.728 20.105 33.561 0 29.834-18.323 34.211-25.456 34.211-33.402.002-47.67-60.8-23.835-60.8z" fill="#F6F6F6"/><path d="M12.326 56.018h3.891v1.946h-3.891v-1.946zm11.188 0h3.891v1.946h-3.891v-1.946zm-4.865 4.864h1.945v3.892H18.65v-3.892zm0-11.187h1.945v3.891H18.65v-3.891z" fill="#2A7BBD"/><path d="M44.673 19.78v3.891H8.678V19.78a3.903 3.903 0 013.891-3.892h28.212a3.903 3.903 0 013.892 3.892zm0 3.891l-.002 18.484a3.893 3.893 0 01-3.891 3.892H12.569a3.903 3.903 0 01-3.891-3.892V23.671h35.995z" fill="#F6F6F6"/><path d="M16.947 15.889h-4.378a3.903 3.903 0 00-3.891 3.89v3.892h4.377V19.78a3.903 3.903 0 013.892-3.892zm-3.892 26.266V23.671H8.678v18.484a3.903 3.903 0 003.891 3.892h4.378a3.903 3.903 0 01-3.892-3.892zm28.213 13.62c6.179 0 11.188-5.009 11.188-11.188 0-6.178-5.01-11.187-11.188-11.187-6.179 0-11.188 5.009-11.188 11.188 0 6.178 5.01 11.187 11.188 11.187z" fill="#F6F6F6"/><path d="M34.458 44.587c0-5.428 3.868-9.952 8.999-10.97a11.27 11.27 0 00-2.189-.217c-6.18 0-11.188 5.008-11.188 11.188 0 6.179 5.009 11.187 11.188 11.187.75 0 1.48-.076 2.189-.218-5.13-1.017-8.999-5.541-8.999-10.97z" fill="#F6F6F6"/><path d="M39.322 49.938c-.385 0-.758-.154-1.03-.428l-3.406-3.405 2.065-2.064 2.298 2.296 5.298-6.112 2.204 1.91-6.323 7.297a1.457 1.457 0 01-1.051.502c-.021.004-.039.004-.055.004z" fill="#2A7BBD"/><path d="M23.757 47.506H12.569a5.355 5.355 0 01-5.35-5.35V19.78a5.355 5.355 0 015.35-5.35h28.213c2.95 0 5.35 2.398 5.35 5.35v7.783h-2.918V19.78a2.435 2.435 0 00-2.432-2.432H12.569a2.436 2.436 0 00-2.432 2.432v22.375a2.436 2.436 0 002.432 2.432h11.188v2.919z" fill="#141315"/><path d="M8.678 22.212h35.995v2.919H8.678v-2.92zM15 11.997h2.92v7.783H15v-7.783zm20.43 0h2.92v7.783h-2.92v-7.783zm5.838 45.237c-6.973 0-12.647-5.673-12.647-12.647 0-6.973 5.674-12.647 12.647-12.647 6.974 0 12.647 5.674 12.647 12.647 0 6.974-5.673 12.647-12.647 12.647zm0-22.375c-5.364 0-9.728 4.364-9.728 9.728 0 5.365 4.364 9.729 9.728 9.729s9.729-4.364 9.729-9.729c0-5.364-4.364-9.728-9.729-9.728z" fill="#141315"/></svg>