<svg width="62" height="68" fill="none" xmlns="http://www.w3.org/2000/svg"><path d="M11.843 6.971C25.302 6.971 34.543 0 41.03 0c6.485 0 20.105 3.728 20.105 33.561 0 29.834-18.323 34.211-25.456 34.211-33.402.002-47.67-60.8-23.835-60.8z" fill="#F6F6F6"/><path d="M15.917 8.903l2.751-2.751 1.376 1.375-2.751 2.752-1.376-1.376zm-7.912 7.908l2.752-2.752 1.376 1.376-2.752 2.752-1.376-1.376zm.002-9.631l1.376-1.376 2.752 2.751-1.376 1.376L8.007 7.18zM54.24 20.988a2.922 2.922 0 01-2.919-2.918c0-1.61 1.31-2.919 2.92-2.919a2.923 2.923 0 012.918 2.919 2.922 2.922 0 01-2.919 2.918zm0-3.891a.974.974 0 00-.973.973c0 .537.438.973.973.973a.974.974 0 00.973-.973.974.974 0 00-.973-.973z" fill="#2A7BBD"/><path d="M38.836 55.775H22.298a1.946 1.946 0 01-1.946-1.946V39.237c0-1.074.872-1.946 1.946-1.946h16.538c1.074 0 1.946.872 1.946 1.946v14.592a1.946 1.946 0 01-1.946 1.946z" fill="#F6F6F6"/><path d="M27.162 37.291h6.81v5.837h-6.81v-5.837zm20.429-8.756c0-9.133-7.623-16.538-17.024-16.538-9.402 0-17.025 7.405-17.025 16.538h34.05zM24.73 53.83V39.236c0-1.074.872-1.946 1.945-1.946h-4.377a1.946 1.946 0 00-1.946 1.946v14.592c0 1.074.872 1.946 1.946 1.946h4.378a1.946 1.946 0 01-1.946-1.946z" fill="#F6F6F6"/><path d="M27.162 37.291h4.377v5.837h-4.378v-5.837zm5.593-25.142a17.643 17.643 0 00-2.189-.152c-9.403 0-17.024 7.405-17.024 16.538h4.378c0-8.41 6.469-15.341 14.835-16.386z" fill="#F6F6F6"/><path d="M38.836 57.234H22.298a3.409 3.409 0 01-3.405-3.404V39.237a3.409 3.409 0 013.405-3.405h16.538a3.409 3.409 0 013.405 3.405V53.83a3.409 3.409 0 01-3.405 3.404zM22.298 38.75a.487.487 0 00-.486.487V53.83c0 .268.217.486.486.486h16.538a.487.487 0 00.487-.486V39.237a.487.487 0 00-.487-.487H22.298z" fill="#141315"/><path d="M33.972 44.587h-6.81a1.46 1.46 0 01-1.46-1.459v-5.837c0-.805.654-1.46 1.46-1.46h6.81a1.46 1.46 0 011.459 1.46v5.837a1.46 1.46 0 01-1.46 1.46zm-5.35-2.918h3.89V38.75h-3.89v2.919zm4.377 8.756h3.891v2.918H33v-2.918zm7.024-12.44l5.832-9.735 2.506 1.502-5.832 9.734-2.506-1.501zM12.778 29.78l2.497-1.507 5.836 9.663-2.496 1.508-5.837-9.663z" fill="#141315"/><path d="M22.433 29.668l2.609-1.305 3.89 7.779-2.61 1.304-3.89-7.778zm9.727 6.493l3.889-7.779 2.609 1.305-3.89 7.779-2.609-1.305z" fill="#2A7BBD"/><path d="M47.592 29.995h-34.05a1.46 1.46 0 01-1.46-1.46c0-9.925 8.293-17.997 18.485-17.997 10.191 0 18.484 8.072 18.484 17.997a1.46 1.46 0 01-1.46 1.46zm-32.519-2.919H46.06c-.76-7.633-7.417-13.62-15.493-13.62-8.077 0-14.733 5.987-15.494 13.62z" fill="#2A7BBD"/></svg>