<svg width="62" height="68" fill="none" xmlns="http://www.w3.org/2000/svg"><path d="M11.843 6.971C25.302 6.971 34.543 0 41.03 0c6.485 0 20.105 3.728 20.105 33.561 0 29.834-18.323 34.211-25.456 34.211-33.402.002-47.67-60.8-23.835-60.8z" fill="#F6F6F6"/><path d="M10.484 6.711l2.752-2.751 1.376 1.376-2.752 2.751-1.376-1.376zM2.573 14.62l2.752-2.752L6.7 13.243l-2.752 2.752-1.376-1.376zm.001-9.63L3.95 3.615 6.7 6.366 5.326 7.742 2.574 4.99zm50.58 30.538a2.922 2.922 0 01-2.919-2.918 2.922 2.922 0 012.919-2.919 2.922 2.922 0 012.918 2.919 2.92 2.92 0 01-2.918 2.918zm0-3.891a.976.976 0 00-.973.973c0 .535.438.973.973.973a.976.976 0 00.973-.973.974.974 0 00-.973-.973z" fill="#2A7BBD"/><path d="M14.514 11.997h32.104v43.778H14.514V11.997z" fill="#F6F6F6"/><path d="M14.514 11.997h3.892v43.778h-3.891V11.997z" fill="#F6F6F6"/><path d="M16.933 24.644a6.324 6.324 0 100-12.647 6.324 6.324 0 000 12.647z" fill="#F6F6F6"/><path d="M12.692 23.03l-4.014 6.828 3.138-.196 1.387 2.765 3.74-6.35-4.251-3.048z" fill="#F6F6F6"/><path d="M21.19 23.008l4.026 6.85-3.139-.196-1.395 2.765-3.74-6.35-.854-1.48 5.102-1.59z" fill="#F6F6F6"/><path d="M14.5 18.32c0-2.809 1.845-5.161 4.378-5.986-.616-.2-1.262-.337-1.945-.337a6.323 6.323 0 100 12.647c.683 0 1.329-.136 1.945-.336-2.533-.825-4.377-3.178-4.377-5.987z" fill="#F6F6F6"/><path d="M42.727 57.234h-24.32a5.355 5.355 0 01-5.352-5.35V39.237h2.919v12.647a2.435 2.435 0 002.432 2.432h24.321a2.435 2.435 0 002.432-2.432V15.889a2.435 2.435 0 00-2.432-2.433H28.135v-2.918h14.592a5.354 5.354 0 015.35 5.35v35.996a5.354 5.354 0 01-5.35 5.35z" fill="#141315"/><path d="M16.933 26.103c-4.292 0-7.783-3.49-7.783-7.782 0-4.293 3.49-7.783 7.783-7.783 4.292 0 7.783 3.49 7.783 7.783 0 4.292-3.49 7.782-7.783 7.782zm0-12.647a4.868 4.868 0 00-4.864 4.865 4.868 4.868 0 004.864 4.864 4.869 4.869 0 004.864-4.864 4.869 4.869 0 00-4.864-4.865z" fill="#2A7BBD"/><path d="M13.201 33.886h-.048a1.468 1.468 0 01-1.257-.806l-.952-1.902-2.175.136a1.456 1.456 0 01-1.35-2.193l4.014-6.831 2.518 1.479-2.623 4.463.397-.025c.578-.069 1.134.278 1.397.801l.184.366 2.38-4.04 2.516 1.483-3.742 6.351a1.465 1.465 0 01-1.259.718z" fill="#2A7BBD"/><path d="M20.682 33.886a1.46 1.46 0 01-1.257-.718l-4.6-7.841 2.528-1.46 3.232 5.517.19-.378c.263-.523.808-.862 1.396-.797l.399.025-2.635-4.487 2.516-1.479 4.026 6.853a1.451 1.451 0 01-.016 1.502c-.282.46-.79.765-1.335.69l-2.179-.135-.96 1.905a1.465 1.465 0 01-1.256.801c-.016.002-.033.002-.049.002z" fill="#2A7BBD"/></svg>