<svg width="61" height="68" fill="none" xmlns="http://www.w3.org/2000/svg"><path d="M48.801 6.426C35.347 6.677 25.974-.12 19.491.002 13.008.124-.542 4.105.017 33.934c.558 29.83 18.959 33.863 26.091 33.731C59.502 67.04 72.632 5.981 48.802 6.426z" fill="#F6F6F6"/><path d="M10.535 24.591v21.403c0 1.07.875 1.946 1.945 1.946h26.267a3.89 3.89 0 003.892-3.892V24.591H10.535zm-1.945-6.81h35.995v6.81H8.589v-6.81z" fill="#F6F6F6"/><path d="M39.234 11.944H13.94l-5.35 5.838h35.995l-5.35-5.838zm7.296 23.349a5.83 5.83 0 00-5.35 3.488 5.83 5.83 0 00-5.35-3.488c-3.221 0-5.838 2.607-5.838 5.813 0 6.299 11.188 14.616 11.188 14.616s11.188-8.317 11.188-14.616c0-3.206-2.617-5.813-5.837-5.813zM14.913 45.994V24.592h-4.378v21.402c0 1.07.875 1.946 1.945 1.946h4.378a1.951 1.951 0 01-1.945-1.946z" fill="#F6F6F6"/><path d="M8.59 17.781h4.377v6.81H8.59v-6.81z" fill="#F6F6F6"/><path d="M13.94 11.944l-5.35 5.838h4.377l5.35-5.838H13.94zm31.617 26.837a5.802 5.802 0 013.17-3.052 5.81 5.81 0 00-5.359.498c.962.615 1.73 1.5 2.19 2.554zM34.37 41.106c0-2.432 1.508-4.512 3.64-5.38a5.806 5.806 0 00-2.18-.433c-3.221 0-5.838 2.607-5.838 5.813 0 6.299 11.188 14.616 11.188 14.616s.907-.679 2.189-1.774c-3.255-2.78-9-8.322-9-12.842z" fill="#F6F6F6"/><path d="M10.479 6.068l2.751-2.752 1.376 1.376-2.752 2.752-1.375-1.376zm-7.911 7.908l2.751-2.751L6.695 12.6l-2.751 2.751-1.376-1.376zm.002-9.627l1.376-1.376 2.751 2.752L5.322 7.1 2.57 4.349zm42.988 3.949a2.922 2.922 0 01-2.919-2.918c0-1.61 1.31-2.919 2.919-2.919s2.918 1.31 2.918 2.919-1.31 2.918-2.918 2.918zm0-3.891a.974.974 0 00-.973.973c0 .535.436.973.973.973a.974.974 0 00.973-.973.974.974 0 00-.973-.973zM41.18 57.182c-.305 0-.61-.098-.87-.288-1.206-.895-11.777-8.952-11.777-15.788 0-4.01 3.273-7.273 7.296-7.273 2.069 0 3.997.868 5.351 2.324a7.307 7.307 0 015.35-2.324c4.024 0 7.297 3.263 7.297 7.273 0 6.836-10.57 14.89-11.777 15.786a1.46 1.46 0 01-.87.29zm-5.35-20.43c-2.415 0-4.378 1.953-4.378 4.354 0 4.168 6.374 10.1 9.728 12.772 3.354-2.673 9.728-8.614 9.728-12.772 0-2.4-1.963-4.354-4.377-4.354a4.367 4.367 0 00-4.012 2.613c-.463 1.064-2.213 1.064-2.676 0a4.372 4.372 0 00-4.014-2.613z" fill="#2A7BBD"/><path d="M27.073 49.399H12.481a3.409 3.409 0 01-3.405-3.405V24.591a1.46 1.46 0 011.459-1.459h32.104c.805 0 1.46.654 1.46 1.46v5.836h-2.92v-4.377H11.995v19.943c0 .265.222.486.487.486h14.592v2.92z" fill="#141315"/><path d="M22.21 28.97h8.755v2.918h-8.756v-2.919zm22.375-2.92H8.59a1.46 1.46 0 01-1.46-1.459v-6.81a1.46 1.46 0 011.46-1.459h35.995c.805 0 1.46.654 1.46 1.46v6.81a1.46 1.46 0 01-1.46 1.459zm-34.536-2.918h33.077v-3.891H10.049v3.891z" fill="#141315"/><path d="M43.509 18.768l-4.917-5.364h-24.01l-4.917 5.364-2.152-1.973 5.351-5.837a1.46 1.46 0 011.076-.473h25.294c.409 0 .8.171 1.076.473l5.35 5.837-2.151 1.973z" fill="#141315"/></svg>