<svg width="62" height="68" fill="none" xmlns="http://www.w3.org/2000/svg"><path d="M49.29 6.972C35.834 6.972 26.592 0 20.107 0 13.62 0 0 3.73 0 33.563c0 29.834 18.322 34.212 25.456 34.212 33.401 0 47.67-60.803 23.835-60.803z" fill="#F6F6F6"/><path d="M47.804 15.687l2.751-2.752 1.376 1.376-2.752 2.751-1.375-1.375zm7.91-7.91l2.752-2.752 1.376 1.376-2.752 2.752-1.376-1.376zm-.347 6.523l1.376-1.375 2.751 2.752-1.375 1.375-2.752-2.751zm-7.585-7.582l1.376-1.375 2.751 2.751-1.376 1.376-2.751-2.752z" fill="#2A7BBD"/><path d="M21.81 52.371h-9.727a3.891 3.891 0 01-3.892-3.89V15.402a3.891 3.891 0 003.892 3.892h27.24V48.48a3.891 3.891 0 01-3.892 3.892h-13.62z" fill="#F6F6F6"/><path d="M35.431 19.295H12.083a3.903 3.903 0 01-3.892-3.892 3.903 3.903 0 013.892-3.89H35.43v7.782zm4.363 34.175c-3.353 3.353-8.255 2.75-8.255 2.75 3.44-4.814.774-6.276 2.752-8.254a3.891 3.891 0 115.503 5.503z" fill="#F6F6F6"/><path d="M40.718 49.516l11.207-9.495-.02-.02c.059-.038.117-.096.176-.155a2.9 2.9 0 000-4.125 2.9 2.9 0 00-4.125 0 1.262 1.262 0 00-.156.175l-.02-.019-9.475 11.188 2.413 2.451z" fill="#F6F6F6"/><path d="M38.182 47.966c.245-.245.52-.436.806-.602a3.882 3.882 0 00-4.697.602c-1.978 1.978.688 3.44-2.752 8.255 0 0 1.91.234 4.162-.405 3-4.487.562-5.93 2.481-7.85z" fill="#F6F6F6"/><path d="M42.197 47.065l9.476-11.188.02.02a1.25 1.25 0 01.155-.176c.035-.034.08-.045.117-.077-1.152-1.047-2.895-1.036-4.009.077a1.256 1.256 0 00-.155.175l-.02-.019-9.475 11.188 2.413 2.451 2.122-1.798-.644-.653zM12.083 48.48V19.295a3.891 3.891 0 01-3.892-3.892V48.48a3.891 3.891 0 003.892 3.892h3.891a3.891 3.891 0 01-3.891-3.892z" fill="#F6F6F6"/><path d="M12.083 15.403a3.903 3.903 0 013.891-3.89h-3.891a3.903 3.903 0 00-3.892 3.89 3.903 3.903 0 003.892 3.892h3.891a3.903 3.903 0 01-3.891-3.892z" fill="#F6F6F6"/><path d="M33.497 47.172h0c-.59.59-.885 1.17-1.03 1.742-.142.565-.135 1.116-.128 1.636v.007c.007.613.014 1.25-.195 2.04-.21.79-.64 1.742-1.518 2.972a1.12 1.12 0 00.776 1.766 8.92 8.92 0 001.06.053c1.757 0 5.373-.372 8.126-3.125a4.981 4.981 0 001.47-3.545c0-1.34-.523-2.6-1.47-3.546a5.02 5.02 0 00-7.091 0zm1.588 1.588a2.76 2.76 0 011.957-.81c.71 0 1.419.27 1.959.81.522.523.81 1.217.81 1.958 0 .74-.288 1.434-.81 1.957-1.695 1.695-3.887 2.243-5.438 2.403 1.052-2.036 1.034-3.458 1.02-4.548-.005-.459-.008-.767.055-1.031.06-.254.181-.474.447-.739z" fill="#2A7BBD" stroke="#2A7BBD" stroke-width=".3"/><path d="M39.162 47.79h0c-.4.472-1.106.534-1.582.131h0a1.122 1.122 0 01-.13-1.582s0 0 0 0l9.475-11.188h0c.058-.068.124-.13.196-.182l.007-.007h0a.516.516 0 00.01-.01l.005-.006h0c1.592-1.592 4.156-1.595 5.732-.019h0a4.045 4.045 0 01-.05 5.762 1.01 1.01 0 01-.174.189s0 0 0 0l-11.207 9.495-2.282-2.582zm0 0l9.316-10.999c.109-.078.206-.174.282-.286a1.776 1.776 0 012.528.01c.707.708.713 1.814-.015 2.56a1.05 1.05 0 00-.25.239l-11.03 9.346s0 0 0 0m-.83-.87l.83.87m0 0a1.123 1.123 0 00-.132 1.583l.131-1.583zm-.132 1.583a1.12 1.12 0 001.583.13l-1.583-.13z" fill="#2A7BBD" stroke="#2A7BBD" stroke-width=".3"/><path d="M38.1 38.75a1.222 1.222 0 102.445 0V19.296c0-.676-.547-1.223-1.223-1.223h-2.668v-6.56c0-.676-.547-1.223-1.223-1.223H12.083a5.12 5.12 0 00-5.114 5.114 5.12 5.12 0 005.114 5.115H38.1V38.75zM9.414 15.405a2.672 2.672 0 012.669-2.67h22.125v5.338H12.083a2.672 2.672 0 01-2.669-2.668z" fill="#141315" stroke="#000" stroke-width=".5"/><path d="M12.083 53.594h13.62a1.222 1.222 0 100-2.445h-13.62a2.672 2.672 0 01-2.669-2.669V15.403a1.222 1.222 0 10-2.445 0V48.48a5.12 5.12 0 005.114 5.114z" fill="#141315" stroke="#000" stroke-width=".5"/></svg>