<svg width="928" height="966" fill="none" xmlns="http://www.w3.org/2000/svg"><g opacity=".1"><mask id="a" maskUnits="userSpaceOnUse" x="-220.297" y="-203.611" width="1307.43" height="1316.23" fill="#000"><path fill="#fff" d="M-220.297-203.611h1307.43v1316.23h-1307.43z"/><path fill-rule="evenodd" clip-rule="evenodd" d="M896.766 524.709c8.931 5.628 15.28 13.102 19.044 22.421 3.744 9.498 4.825 20.741 3.244 33.731l-18.498-2.304.82-4.504c1.797-14.768-1.353-26.902-9.451-36.4-8.098-9.497-20.368-15.27-36.811-17.318l-71.85-8.946 2.306-18.95 141.018 17.559-2.208 18.149-27.614-3.438zm-82.49-218.021l36.256 112.847 5.74-1.527c13.373-4.216 24.297-10.767 32.771-19.653 8.646-8.94 14.291-19.287 16.934-31.041 2.643-11.755 1.96-23.873-2.051-36.355-4.01-12.481-10.55-22.847-19.621-31.097-9.015-8.079-19.686-13.377-32.012-15.893-12.272-2.345-25.008-1.437-38.21 2.725-13.202 4.163-24.071 10.884-32.607 20.166-8.535 9.282-14.101 20.169-16.696 32.661-2.368 12.61-1.328 25.84 3.122 39.689 3.461 10.772 8.505 20.009 15.134 27.71 6.683 7.873 14.587 13.667 23.711 17.381l8.534-13.989c-7.478-3.291-13.886-7.956-19.224-13.993-5.167-6.091-9.096-13.326-11.788-21.704-4.779-14.875-4.448-28.537.993-40.986 5.613-12.503 15.284-21.483 29.014-26.941zm50.814.362c11.257 6.242 18.974 15.86 23.149 28.855 4.229 13.166 3.545 25.433-2.055 36.801-5.373 11.486-14.554 19.935-27.543 25.348l-30.735-95.664c13.758-3.019 26.152-1.466 37.184 4.66zM722.937 176.211l-45.484-.851-27.858 29.183-13.92-13.187L773.48 46.994 787.4 60.18l-93.417 97.863 114.863 2.483 17.253 16.345-84.043.039-9.529 106.199-17.057-16.159 7.467-90.74zm-215.788-43.278c9.09 8.912 20.396 15.285 33.915 19.12 11.613 3.295 22.732 4.028 33.358 2.199 10.674-2.001 19.94-6.636 27.797-13.907l-11.15-13.221c-6.406 5.447-13.538 8.825-21.396 10.135-7.859 1.31-15.861.809-24.007-1.502-9.88-2.803-18.198-7.491-24.953-14.064-6.534-6.696-10.934-14.65-13.2-23.86-2.045-9.335-1.582-19.262 1.389-29.781 2.921-10.347 7.693-18.959 14.315-25.834 6.795-6.827 14.701-11.29 23.718-13.388 9.239-2.222 18.799-1.931 28.678.871 8.147 2.311 15.2 6.175 21.159 11.59 6.008 5.244 10.315 11.867 12.923 19.871l16.409-5.403c-2.89-10.32-8.382-19.048-16.475-26.187-7.872-7.262-17.701-12.565-29.487-15.909-13.519-3.835-26.48-4.345-38.882-1.53-12.229 2.864-22.861 8.695-31.898 17.493-9.037 8.799-15.43 19.837-19.18 33.115-3.749 13.279-4.1 26.125-1.053 38.537 3.096 12.241 9.103 22.792 18.02 31.655zM335.594 3.213c18.157-3.682 33.035-1.937 44.632 5.234 11.561 6.996 19.189 19.367 22.883 37.115l17.886 85.928-17.981 3.647-4.499-21.614c-2.731 8.062-7.819 14.955-15.263 20.676-7.268 5.687-16.543 9.674-27.825 11.962-15.513 3.146-28.62 1.958-39.323-3.563s-17.317-14.344-19.84-26.469c-2.451-11.774-.195-22.12 6.767-31.041 7.138-8.957 20.05-15.33 38.736-19.12l44.159-8.955-1.756-8.434c-2.487-11.95-7.72-20.32-15.699-25.111-8.016-4.968-18.458-6.147-31.326-3.537-8.814 1.788-16.965 4.997-24.452 9.629-7.524 4.456-13.664 9.822-18.421 16.098l-11.369-12.254c5.807-7.405 13.318-13.69 22.531-18.855 9.177-5.34 19.231-9.119 30.16-11.335zm19.67 127.597c10.577-2.145 19.161-6.358 25.754-12.64 6.556-6.457 10.734-14.63 12.534-24.519l-4.718-22.668-43.63 8.849c-23.799 4.826-33.979 15.498-30.54 32.016 1.682 8.083 6.102 13.871 13.26 17.364 7.12 3.318 16.234 3.85 27.34 1.598zM79.786 83.927c17.77-16.184 35.59-24.625 53.461-25.321 17.872-.696 33.627 6.378 47.266 21.223 13.639 14.845 19.317 31.099 17.033 48.761-2.406 17.53-12.494 34.387-30.263 50.571l-37.394 34.06 40.369 43.939-14.719 13.407L27.673 131.394l52.113-47.467zm75.226 82.674c13.791-12.562 21.593-25.146 23.406-37.753 1.692-12.74-2.516-24.611-12.624-35.612-10.351-11.267-21.913-16.56-34.686-15.882-12.895.545-26.238 7.099-40.029 19.66l-36.996 33.698 63.933 69.586 36.996-33.697zm450.757 620.524l46.482 144.191 13.729-10.842-39.947-122.182 110.705 66.306 12.884-10.174-39.525-122.516 110.072 66.807 14.362-11.342-130.335-77.974-14.152 11.175 37.466 118.64-107.59-63.264-14.151 11.175zM402.935 891.327l118.494-8.369c-2.178-14.591-8.727-26.087-19.645-34.486-10.905-8.221-24.167-11.78-39.787-10.677-8.797.621-16.762 2.712-23.895 6.273-7.119 3.74-13.143 8.841-18.073 15.303l-11.699-11.582c5.72-7.956 13.19-14.238 22.41-18.845 9.041-4.595 19.216-7.292 30.527-8.09 14.542-1.028 27.697 1.1 39.465 6.383 11.601 5.474 20.953 13.445 28.056 23.913 7.102 10.467 11.171 22.588 12.204 36.361 1.034 13.773-1.002 26.324-6.107 37.654-5.286 11.342-12.906 20.422-22.863 27.239-10.136 6.83-21.757 10.708-34.863 11.633-13.107.926-25.094-1.284-35.964-6.63-10.87-5.347-19.676-13.266-26.42-23.759-6.73-10.314-10.619-22.447-11.666-36.399l-.174-5.922zm72.995 56.344c13.645-.964 24.806-6.158 33.484-15.582 8.512-9.233 12.873-20.869 13.082-34.91l-100.45 7.094c2.304 13.864 8.446 24.759 18.426 32.685 9.815 8.118 21.634 11.689 35.458 10.713zm-265.537-54.113c5.202 12.565 16.262 22.661 33.181 30.287 10.184 4.591 20.575 7.407 31.174 8.451 10.526 1.206 20.326.514 29.403-2.077l-2.026-16.538c-7.557 2.293-15.704 3.043-24.439 2.25-8.809-.63-17.32-2.795-25.533-6.498-11.991-5.405-19.781-12.454-23.37-21.147-3.662-8.53-2.987-18.348 2.025-29.454l3.537-7.839 41.148 18.548c17.411 7.848 31.652 10.238 42.723 7.17 10.906-3.142 18.828-10.184 23.766-21.127 5.086-11.269 4.905-22.258-.541-32.968-5.446-10.71-15.396-19.323-29.851-25.838-10.513-4.739-20.395-6.933-29.646-6.583-9.415.277-17.605 2.875-24.569 7.794l9.066-20.089-16.755-7.552-36.04 79.864c-7.444 16.495-8.529 30.944-3.253 43.346zm63.932-89.108c9.054-1.226 18.508.382 28.364 4.825 10.348 4.665 17.439 10.416 21.271 17.254 3.76 7.001 3.944 14.258.554 21.771-6.928 15.352-21.48 18.03-43.655 8.034l-40.654-18.325 9.507-21.069c7.282-6.937 15.487-11.101 24.613-12.49zm-171.713-15.218c-10.129 2.902-19.936 2.648-29.423-.76-9.606-3.543-18.763-10.234-27.473-20.071l13.955-12.245 2.84 3.614c9.903 11.184 21.096 16.926 33.58 17.226 12.484.299 24.928-4.993 37.332-15.878l54.202-47.561 12.706 14.351L93.95 821.256l-12.17-13.745 20.832-18.279zm-67.26-335.316c4.32-3.536 6.743-8.07 7.273-13.602.53-5.532-.99-10.455-4.557-14.771-3.747-4.333-8.488-6.782-14.223-7.349-5.735-.566-10.672.928-14.812 4.482-4.318 3.536-6.742 8.071-7.272 13.602-.53 5.532.99 10.456 4.557 14.771 3.388 4.297 7.95 6.729 13.685 7.296 5.915.584 11.031-.892 15.35-4.429z"/></mask><path clip-rule="evenodd" d="M896.766 524.709c8.931 5.628 15.28 13.102 19.044 22.421 3.744 9.498 4.825 20.741 3.244 33.731l-18.498-2.304.82-4.504c1.797-14.768-1.353-26.902-9.451-36.4-8.098-9.497-20.368-15.27-36.811-17.318l-71.85-8.946 2.306-18.95 141.018 17.559-2.208 18.149-27.614-3.438zm-82.49-218.021l36.256 112.847 5.74-1.527c13.373-4.216 24.297-10.767 32.771-19.653 8.646-8.94 14.291-19.287 16.934-31.041 2.643-11.755 1.96-23.873-2.051-36.355-4.01-12.481-10.55-22.847-19.621-31.097-9.015-8.079-19.686-13.377-32.012-15.893-12.272-2.345-25.008-1.437-38.21 2.725-13.202 4.163-24.071 10.884-32.607 20.166-8.535 9.282-14.101 20.169-16.696 32.661-2.368 12.61-1.328 25.84 3.122 39.689 3.461 10.772 8.505 20.009 15.134 27.71 6.683 7.873 14.587 13.667 23.711 17.381l8.534-13.989c-7.478-3.291-13.886-7.956-19.224-13.993-5.167-6.091-9.096-13.326-11.788-21.704-4.779-14.875-4.448-28.537.993-40.986 5.613-12.503 15.284-21.483 29.014-26.941zm50.814.362c11.257 6.242 18.974 15.86 23.149 28.855 4.229 13.166 3.545 25.433-2.055 36.801-5.373 11.486-14.554 19.935-27.543 25.348l-30.735-95.664c13.758-3.019 26.152-1.466 37.184 4.66zM722.937 176.211l-45.484-.851-27.858 29.183-13.92-13.187L773.48 46.994 787.4 60.18l-93.417 97.863 114.863 2.483 17.253 16.345-84.043.039-9.529 106.199-17.057-16.159 7.467-90.74zm-215.788-43.278c9.09 8.912 20.396 15.285 33.915 19.12 11.613 3.295 22.732 4.028 33.358 2.199 10.674-2.001 19.94-6.636 27.797-13.907l-11.15-13.221c-6.406 5.447-13.538 8.825-21.396 10.135-7.859 1.31-15.861.809-24.007-1.502-9.88-2.803-18.198-7.491-24.953-14.064-6.534-6.696-10.934-14.65-13.2-23.86-2.045-9.335-1.582-19.262 1.389-29.781 2.921-10.347 7.693-18.959 14.315-25.834 6.795-6.827 14.701-11.29 23.718-13.388 9.239-2.222 18.799-1.931 28.678.871 8.147 2.311 15.2 6.175 21.159 11.59 6.008 5.244 10.315 11.867 12.923 19.871l16.409-5.403c-2.89-10.32-8.382-19.048-16.475-26.187-7.872-7.262-17.701-12.565-29.487-15.909-13.519-3.835-26.48-4.345-38.882-1.53-12.229 2.864-22.861 8.695-31.898 17.493-9.037 8.799-15.43 19.837-19.18 33.115-3.749 13.279-4.1 26.125-1.053 38.537 3.096 12.241 9.103 22.792 18.02 31.655zM335.594 3.213c18.157-3.682 33.035-1.937 44.632 5.234 11.561 6.996 19.189 19.367 22.883 37.115l17.886 85.928-17.981 3.647-4.499-21.614c-2.731 8.062-7.819 14.955-15.263 20.676-7.268 5.687-16.543 9.674-27.825 11.962-15.513 3.146-28.62 1.958-39.323-3.563s-17.317-14.344-19.84-26.469c-2.451-11.774-.195-22.12 6.767-31.041 7.138-8.957 20.05-15.33 38.736-19.12l44.159-8.955-1.756-8.434c-2.487-11.95-7.72-20.32-15.699-25.111-8.016-4.968-18.458-6.147-31.326-3.537-8.814 1.788-16.965 4.997-24.452 9.629-7.524 4.456-13.664 9.822-18.421 16.098l-11.369-12.254c5.807-7.405 13.318-13.69 22.531-18.855 9.177-5.34 19.231-9.119 30.16-11.335zm19.67 127.597c10.577-2.145 19.161-6.358 25.754-12.64 6.556-6.457 10.734-14.63 12.534-24.519l-4.718-22.668-43.63 8.849c-23.799 4.826-33.979 15.498-30.54 32.016 1.682 8.083 6.102 13.871 13.26 17.364 7.12 3.318 16.234 3.85 27.34 1.598zM79.786 83.927c17.77-16.184 35.59-24.625 53.461-25.321 17.872-.696 33.627 6.378 47.266 21.223 13.639 14.845 19.317 31.099 17.033 48.761-2.406 17.53-12.494 34.387-30.263 50.571l-37.394 34.06 40.369 43.939-14.719 13.407L27.673 131.394l52.113-47.467zm75.226 82.674c13.791-12.562 21.593-25.146 23.406-37.753 1.692-12.74-2.516-24.611-12.624-35.612-10.351-11.267-21.913-16.56-34.686-15.882-12.895.545-26.238 7.099-40.029 19.66l-36.996 33.698 63.933 69.586 36.996-33.697zm450.757 620.524l46.482 144.191 13.729-10.842-39.947-122.182 110.705 66.306 12.884-10.174-39.525-122.516 110.072 66.807 14.362-11.342-130.335-77.974-14.152 11.175 37.466 118.64-107.59-63.264-14.151 11.175zM402.935 891.327l118.494-8.369c-2.178-14.591-8.727-26.087-19.645-34.486-10.905-8.221-24.167-11.78-39.787-10.677-8.797.621-16.762 2.712-23.895 6.273-7.119 3.74-13.143 8.841-18.073 15.303l-11.699-11.582c5.72-7.956 13.19-14.238 22.41-18.845 9.041-4.595 19.216-7.292 30.527-8.09 14.542-1.028 27.697 1.1 39.465 6.383 11.601 5.474 20.953 13.445 28.056 23.913 7.102 10.467 11.171 22.588 12.204 36.361 1.034 13.773-1.002 26.324-6.107 37.654-5.286 11.342-12.906 20.422-22.863 27.239-10.136 6.83-21.757 10.708-34.863 11.633-13.107.926-25.094-1.284-35.964-6.63-10.87-5.347-19.676-13.266-26.42-23.759-6.73-10.314-10.619-22.447-11.666-36.399l-.174-5.922zm72.995 56.344c13.645-.964 24.806-6.158 33.484-15.582 8.512-9.233 12.873-20.869 13.082-34.91l-100.45 7.094c2.304 13.864 8.446 24.759 18.426 32.685 9.815 8.118 21.634 11.689 35.458 10.713zm-265.537-54.113c5.202 12.565 16.262 22.661 33.181 30.287 10.184 4.591 20.575 7.407 31.174 8.451 10.526 1.206 20.326.514 29.403-2.077l-2.026-16.538c-7.557 2.293-15.704 3.043-24.439 2.25-8.809-.63-17.32-2.795-25.533-6.498-11.991-5.405-19.781-12.454-23.37-21.147-3.662-8.53-2.987-18.348 2.025-29.454l3.537-7.839 41.148 18.548c17.411 7.848 31.652 10.238 42.723 7.17 10.906-3.142 18.828-10.184 23.766-21.127 5.086-11.269 4.905-22.258-.541-32.968-5.446-10.71-15.396-19.323-29.851-25.838-10.513-4.739-20.395-6.933-29.646-6.583-9.415.277-17.605 2.875-24.569 7.794l9.066-20.089-16.755-7.552-36.04 79.864c-7.444 16.495-8.529 30.944-3.253 43.346zm63.932-89.108c9.054-1.226 18.508.382 28.364 4.825 10.348 4.665 17.439 10.416 21.271 17.254 3.76 7.001 3.944 14.258.554 21.771-6.928 15.352-21.48 18.03-43.655 8.034l-40.654-18.325 9.507-21.069c7.282-6.937 15.487-11.101 24.613-12.49zm-171.713-15.218c-10.129 2.902-19.936 2.648-29.423-.76-9.606-3.543-18.763-10.234-27.473-20.071l13.955-12.245 2.84 3.614c9.903 11.184 21.096 16.926 33.58 17.226 12.484.299 24.928-4.993 37.332-15.878l54.202-47.561 12.706 14.351L93.95 821.256l-12.17-13.745 20.832-18.279zm-67.26-335.316c4.32-3.536 6.743-8.07 7.273-13.602.53-5.532-.99-10.455-4.557-14.771-3.747-4.333-8.488-6.782-14.223-7.349-5.735-.566-10.672.928-14.812 4.482-4.318 3.536-6.742 8.071-7.272 13.602-.53 5.532.99 10.456 4.557 14.771 3.388 4.297 7.95 6.729 13.685 7.296 5.915.584 11.031-.892 15.35-4.429z" stroke="#035191" stroke-width="2" mask="url(#a)"/></g></svg>