<svg width="1920" height="888" viewBox="0 0 1920 888" fill="none" xmlns="http://www.w3.org/2000/svg">
<path opacity="0.2" fill-rule="evenodd" clip-rule="evenodd" d="M484.387 56.5932C576.859 -60.5551 404.231 -261.957 490.886 -383.473C573.626 -499.5 748.107 -512.492 890.565 -512.99C1022.31 -513.451 1141.35 -447.821 1257.77 -386.154C1361.43 -331.244 1430.94 -235.244 1530.88 -173.82C1685.72 -78.6562 1973.26 -104.98 2006.19 73.8143C2039.07 252.385 1720.55 306.368 1650.13 473.751C1585.82 626.618 1714.91 818.648 1632.33 962.465C1546.77 1111.46 1374.53 1194.09 1209.38 1241.31C1035.92 1290.9 807.332 1360.69 677.476 1235.48C528.686 1092.01 734.142 770.679 579.298 633.773C380.844 458.309 -142.074 734.313 -185.068 472.855C-228.447 209.054 318.734 266.45 484.387 56.5932Z" stroke="#035191" stroke-width="1.5" stroke-dasharray="10 10"/>
</svg>
