<svg width="945" height="951" viewBox="0 0 945 951" fill="none" xmlns="http://www.w3.org/2000/svg">
<path opacity="0.2" fill-rule="evenodd" clip-rule="evenodd" d="M247.662 192.092C278.071 136.383 343.779 95.1827 407.371 94.6168C471.308 94.0478 516.933 154.8 571.02 189.215C611.215 214.79 649.924 239.102 685.054 271.304C722.672 305.784 760.697 339.258 784.138 384.563C811.862 438.144 838.853 495.914 832.21 555.709C825.167 619.103 798.876 686.568 746.56 722.815C694.753 758.709 622.713 728.015 561.486 743.279C498.897 758.884 442.196 842.674 384.638 813.047C322.188 780.903 358.128 674.291 316.898 617.383C283.561 571.37 191.52 580.63 176.58 525.875C161.818 471.772 240.296 434.061 251.948 379.346C265.161 317.3 217.305 247.705 247.662 192.092Z" stroke="#035191" stroke-width="1.5" stroke-dasharray="10 10"/>
</svg>
